<svg width="22" height="19" viewBox="0 0 22 19" fill="none" xmlns="http://www.w3.org/2000/svg">
<path d="M3.99993 8.07805V10.6264C3.99993 12.4877 3.99993 13.4184 4.24465 14.1715C4.73924 15.6937 5.93266 16.8871 7.45485 17.3817C8.20801 17.6264 9.13865 17.6264 10.9999 17.6264C12.8612 17.6264 13.7919 17.6264 14.545 17.3817C16.0672 16.8871 17.2606 15.6937 17.7552 14.1715C17.9999 13.4184 17.9999 12.4877 17.9999 10.6264V8.08133M17.9999 8.08133C17.0427 8.46931 15.8601 8.89073 14.4528 9.39334L12.3454 10.146C11.6794 10.3838 11.3465 10.5028 11 10.5028C10.6536 10.5028 10.3206 10.3838 9.65468 10.146L7.54728 9.39334C3.14662 7.82165 0.946289 7.03581 0.946289 5.62638C0.946289 4.21695 3.14662 3.4311 7.54728 1.85942L9.65468 1.10677C10.3206 0.868922 10.6536 0.75 11 0.75C11.3465 0.75 11.6794 0.868922 12.3454 1.10677L14.4528 1.85942C18.8535 3.4311 21.0538 4.21695 21.0538 5.62638C21.0538 6.58509 20.0361 7.25609 17.9999 8.08133Z" stroke="#FF4E1D" stroke-width="1.5"/>
<path d="M9.50046 0.365382L7.23248 1.17545C5.08494 1.94242 3.39712 2.54521 2.25195 3.13759C1.14511 3.71014 0.196289 4.44609 0.196289 5.62638V12.6381C0.196289 13.0523 0.58572 13.3764 0.999933 13.3764C1.41415 13.3764 1.74993 13.0406 1.74993 12.6264V7.83511C1.46167 7.6602 1.19506 7.46932 0.967006 7.25648C0.501221 6.82179 0.196289 6.29549 0.196289 5.62638C0.196289 5.21216 0.58572 4.87638 0.999933 4.87638C1.07344 4.87638 1.14279 4.88695 1.20714 4.90666L1 4.99988L1.15664 5.62643H1.69635C1.69635 5.85558 1.84769 6.21727 2.94119 6.78292C3.98525 7.323 5.57627 7.89303 7.7996 8.68709L9.90699 9.43974C10.622 9.69512 10.8136 9.75281 11.0001 9.75281C11.1866 9.75281 11.3782 9.69512 12.0932 9.43974L14.271 8.66193C15.6524 8.16859 16.7947 7.76065 17.7183 7.38631C18.7289 6.97669 19.4109 6.63369 19.8337 6.30907C20.2397 5.99736 20.3039 5.78585 20.3039 5.62643H21.8038C21.8038 5.62642 21.8038 5.62645 21.8038 5.62643C21.8038 4.44614 20.855 3.71014 19.7481 3.13759C18.603 2.54521 16.9151 1.94242 14.7676 1.17544L12.4996 0.365386C11.9298 0.161348 11.4793 0 11 0C10.5208 0 10.0703 0.161346 9.50046 0.365382Z" fill="#FF4E1D"/>
<path d="M21.8006 5.74459C21.7698 6.29407 21.5251 6.74782 21.1636 7.12768C21.5292 6.74561 21.7703 6.29483 21.8006 5.74459Z" fill="#FF4E1D"/>
</svg>
