<svg width="22" height="22" viewBox="0 0 22 22" fill="none" xmlns="http://www.w3.org/2000/svg">
<path d="M15 12.75C15.6904 12.75 16.25 13.3096 16.25 14V21.75H5.75V14C5.75 13.3096 6.30964 12.75 7 12.75H15ZM6.25 5C6.25 5.9665 7.0335 6.75 8 6.75H14C14.9665 6.75 15.75 5.9665 15.75 5V0.824219C15.9868 0.972775 16.2084 1.14784 16.4092 1.34863L20.6514 5.59082C21.3545 6.29397 21.7499 7.24779 21.75 8.24219V17C21.75 19.3681 20.0169 21.3308 17.75 21.6904V14C17.75 12.4812 16.5188 11.25 15 11.25H7C5.48122 11.25 4.25 12.4812 4.25 14V21.6904C1.98306 21.3308 0.25 19.3681 0.25 17V5C0.25 2.37665 2.37665 0.25 5 0.25H6.25V5ZM13.7578 0.25C13.9234 0.25002 14.0877 0.26168 14.25 0.283203V5C14.25 5.13807 14.1381 5.25 14 5.25H8C7.86193 5.25 7.75 5.13807 7.75 5V0.25H13.7578Z" fill="white"/>
</svg>
