<svg width="21" height="20" viewBox="0 0 21 20" fill="none" xmlns="http://www.w3.org/2000/svg">
<path fill-rule="evenodd" clip-rule="evenodd" d="M11.1271 1.97525C11.1271 2.39004 10.7904 2.72629 10.375 2.72629C9.95964 2.72629 9.62292 2.39004 9.62292 1.97525V0C7.41927 0.163165 5.41384 1.03751 3.83594 2.39401L5.39153 3.94744C5.68523 4.24074 5.68523 4.71627 5.39153 5.00957C5.09782 5.30287 4.62163 5.30287 4.32792 5.00957L2.77233 3.45614C1.41395 5.03185 0.538392 7.0345 0.375 9.23509H2.35278C2.76814 9.23509 3.10486 9.57134 3.10486 9.98613C3.10486 10.4009 2.76814 10.7372 2.35278 10.7372H0.375C0.538392 12.9378 1.41395 14.9404 2.77233 16.5161L4.32792 14.9627C4.62163 14.6694 5.09782 14.6694 5.39153 14.9627C5.68523 15.256 5.68523 15.7315 5.39153 16.0248L3.83594 17.5783C5.59162 19.0876 7.87661 20 10.375 20C12.8734 20 15.1584 19.0876 16.9141 17.5783L15.3585 16.0248C15.0648 15.7315 15.0648 15.256 15.3585 14.9627C15.6522 14.6694 16.1284 14.6694 16.4221 14.9627L17.9777 16.5161C19.3361 14.9404 20.2116 12.9378 20.375 10.7372H18.397C17.9816 10.7372 17.6449 10.4009 17.6449 9.98613C17.6449 9.57134 17.9816 9.23509 18.397 9.23509H20.375C20.2116 7.0345 19.3361 5.03185 17.9777 3.45614L16.4221 5.00957C16.1284 5.30287 15.6522 5.30287 15.3585 5.00957C15.0648 4.71627 15.0648 4.24074 15.3585 3.94744L16.9141 2.39401C15.3362 1.03751 13.3307 0.163165 11.1271 0V1.97525ZM10.4028 14.0194C8.74132 14.0194 7.39445 12.6744 7.39445 11.0153C7.39445 10.3841 7.82973 9.5087 8.36915 8.66612C9.17579 7.40611 9.57912 6.77611 10.4028 6.77611C11.2264 6.77611 11.6298 7.40611 12.4364 8.66612C12.9758 9.5087 13.4111 10.3841 13.4111 11.0153C13.4111 12.6744 12.0642 14.0194 10.4028 14.0194Z" fill="#848689"/>
</svg>
