<svg width="15" height="14" viewBox="0 0 15 14" fill="none" xmlns="http://www.w3.org/2000/svg">
<path d="M13.4919 12.2148C13.9098 12.2148 14.2497 12.5591 14.2498 12.9824C14.2498 13.4064 13.9098 13.7499 13.4919 13.7499H9.20972C8.79189 13.7499 8.4519 13.4064 8.4519 12.9824C8.45193 12.5591 8.7919 12.2148 9.20972 12.2148H13.4919ZM7.68042 0.967717C8.36487 0.0889262 9.55922 0.00843899 10.5222 0.774357L11.6287 1.65326C12.082 2.00788 12.3845 2.47519 12.488 2.96674C12.6074 3.50771 12.48 4.03942 12.1218 4.49897L5.53198 13.0205C5.22955 13.4074 4.78392 13.6257 4.3064 13.6337L1.68042 13.666C1.53716 13.666 1.41733 13.5686 1.3855 13.4316L0.788819 10.8437C0.685469 10.3681 0.789189 9.87683 1.09155 9.49799L5.76245 3.45111C5.84203 3.35438 5.98531 3.33935 6.08081 3.41108L8.04663 4.97455C8.17397 5.07936 8.34991 5.13546 8.53296 5.11127C8.92254 5.06265 9.18487 4.70866 9.14526 4.33002C9.12139 4.13653 9.02553 3.97537 8.89819 3.85444C8.85729 3.8213 6.98804 2.32221 6.98804 2.32221C6.86889 2.22541 6.84573 2.04771 6.94116 1.92768L7.68042 0.967717Z" fill="white"/>
</svg>
