<svg width="169" height="25" viewBox="0 0 169 25" fill="none" xmlns="http://www.w3.org/2000/svg">
<path d="M12.5 0.420898L15.1942 8.71269H23.9127L16.8593 13.8373L19.5534 22.1291L12.5 17.0045L5.44658 22.1291L8.14074 13.8373L1.08732 8.71269H9.80583L12.5 0.420898Z" fill="white"/>
<path d="M48.5 0.420898L51.1942 8.71269H59.9127L52.8593 13.8373L55.5534 22.1291L48.5 17.0045L41.4466 22.1291L44.1407 13.8373L37.0873 8.71269H45.8058L48.5 0.420898Z" fill="white"/>
<path d="M84.5 0.420898L87.1942 8.71269H95.9127L88.8593 13.8373L91.5534 22.1291L84.5 17.0045L77.4466 22.1291L80.1407 13.8373L73.0873 8.71269H81.8058L84.5 0.420898Z" fill="white"/>
<path d="M120.5 0.420898L123.194 8.71269H131.913L124.859 13.8373L127.553 22.1291L120.5 17.0045L113.447 22.1291L116.141 13.8373L109.087 8.71269H117.806L120.5 0.420898Z" fill="white"/>
<path d="M156.5 0.420898L159.194 8.71269H167.913L160.859 13.8373L163.553 22.1291L156.5 17.0045L149.447 22.1291L152.141 13.8373L145.087 8.71269H153.806L156.5 0.420898Z" fill="white"/>
</svg>
