<svg width="25" height="24" viewBox="0 0 25 24" fill="none" xmlns="http://www.w3.org/2000/svg">
<path d="M18.265 15.67L14.225 12H11.515L7.47501 15.67C6.34501 16.69 5.97501 18.26 6.52501 19.68C7.07501 21.09 8.41501 22 9.92501 22H15.815C17.335 22 18.665 21.09 19.215 19.68C19.765 18.26 19.395 16.69 18.265 15.67ZM14.695 18.14H11.055C10.675 18.14 10.375 17.83 10.375 17.46C10.375 17.09 10.685 16.78 11.055 16.78H14.695C15.075 16.78 15.375 17.09 15.375 17.46C15.375 17.83 15.065 18.14 14.695 18.14Z" fill="#848689"/>
<path d="M19.225 4.32C18.675 2.91 17.335 2 15.825 2H9.92501C8.41501 2 7.07501 2.91 6.52501 4.32C5.98501 5.74 6.35501 7.31 7.48501 8.33L11.525 12H14.235L18.275 8.33C19.395 7.31 19.765 5.74 19.225 4.32ZM14.695 7.23H11.055C10.675 7.23 10.375 6.92 10.375 6.55C10.375 6.18 10.685 5.87 11.055 5.87H14.695C15.075 5.87 15.375 6.18 15.375 6.55C15.375 6.92 15.065 7.23 14.695 7.23Z" fill="#848689"/>
</svg>
