<svg width="48" height="48" viewBox="0 0 48 48" fill="none" xmlns="http://www.w3.org/2000/svg">
<rect width="48" height="48" rx="12" fill="white" fill-opacity="0.04"/>
<rect x="0.5" y="0.5" width="47" height="47" rx="11.5" stroke="url(#paint0_linear_4016_2728)" stroke-opacity="0.08"/>
<path d="M33.23 19.62H27.69C27.31 19.62 27 19.31 27 18.92C27 18.54 27.31 18.23 27.69 18.23H33.23C33.61 18.23 33.92 18.54 33.92 18.92C33.92 19.31 33.61 19.62 33.23 19.62Z" fill="white"/>
<path d="M18.46 19.62H14.77C14.39 19.62 14.08 19.31 14.08 18.93C14.08 18.55 14.39 18.24 14.77 18.24H18.46C18.84 18.24 19.15 18.55 19.15 18.93C19.15 19.31 18.84 19.62 18.46 19.62Z" fill="white"/>
<path d="M22.15 22.84C24.3149 22.84 26.07 21.085 26.07 18.92C26.07 16.755 24.3149 15 22.15 15C19.985 15 18.23 16.755 18.23 18.92C18.23 21.085 19.985 22.84 22.15 22.84Z" fill="white"/>
<path d="M33.23 29.7699H29.54C29.16 29.7699 28.85 29.4599 28.85 29.0799C28.85 28.6999 29.16 28.3899 29.54 28.3899H33.23C33.61 28.3899 33.92 28.6999 33.92 29.0799C33.92 29.4599 33.61 29.7699 33.23 29.7699Z" fill="white"/>
<path d="M20.31 29.7699H14.77C14.39 29.7699 14.08 29.4599 14.08 29.0799C14.08 28.6999 14.39 28.3899 14.77 28.3899H20.31C20.69 28.3899 21 28.6999 21 29.0799C21 29.4599 20.69 29.7699 20.31 29.7699Z" fill="white"/>
<path d="M25.85 32.9999C28.0149 32.9999 29.77 31.2449 29.77 29.0799C29.77 26.915 28.0149 25.1599 25.85 25.1599C23.685 25.1599 21.93 26.915 21.93 29.0799C21.93 31.2449 23.685 32.9999 25.85 32.9999Z" fill="white"/>
<defs>
<linearGradient id="paint0_linear_4016_2728" x1="24" y1="0" x2="24" y2="48" gradientUnits="userSpaceOnUse">
<stop stop-color="white"/>
<stop offset="1" stop-color="white" stop-opacity="0"/>
</linearGradient>
</defs>
</svg>
