<svg width="25" height="24" viewBox="0 0 25 24" fill="none" xmlns="http://www.w3.org/2000/svg">
<path d="M22.125 12.75V10.75C22.125 6.97876 22.125 5.09315 20.9534 3.92157C19.8608 2.82894 17.2773 2.75532 13.875 2.75036C13.875 2.33614 13.5392 2 13.125 2C12.7108 2 12.375 2.33579 12.375 2.75L12.375 20.75C12.375 21.1642 12.7108 21.5 13.125 21.5C13.5392 21.5 13.875 21.1642 13.875 20.75C17.2773 20.745 19.8608 20.6711 20.9534 19.5784C22.125 18.4069 22.125 16.5212 22.125 12.75Z" fill="#848689"/>
<path fill-rule="evenodd" clip-rule="evenodd" d="M11.7841 2.75C11.7841 3.16421 11.4483 3.5 11.0341 3.5H10.125C9.6888 3.5 9.2903 3.50001 8.92257 3.50318C8.50837 3.50675 8.1697 3.17387 8.16612 2.75968C8.16255 2.34548 8.49543 2.00681 8.90963 2.00323C9.28445 2 9.68904 2 10.1228 2L11.0341 2C11.4483 2 11.7841 2.33579 11.7841 2.75ZM11.7841 20.75C11.7841 21.1642 11.4483 21.5 11.0341 21.5H10.1227C9.68895 21.5 9.28441 21.5 8.90963 21.4968C8.49543 21.4932 8.16255 21.1545 8.16612 20.7403C8.1697 20.3261 8.50837 19.9932 8.92257 19.9968C9.2903 20 9.68879 20 10.125 20H11.0341C11.4483 20 11.7841 20.3358 11.7841 20.75ZM6.75382 2.8046C6.87675 3.20015 6.65575 3.62047 6.2602 3.7434C5.93901 3.84322 5.71548 3.97754 5.53401 4.15901C5.35254 4.34048 5.21822 4.56401 5.1184 4.8852C4.99547 5.28075 4.57515 5.50175 4.1796 5.37882C3.78405 5.25589 3.56305 4.83557 3.68598 4.44002C3.84616 3.92463 4.09376 3.47793 4.47335 3.09835C4.85294 2.71876 5.29963 2.47116 5.81502 2.31098C6.21058 2.18805 6.63089 2.40905 6.75382 2.8046ZM6.75382 20.6954C6.63089 21.091 6.21057 21.312 5.81502 21.189C5.29963 21.0288 4.85294 20.7812 4.47335 20.4017C4.09376 20.0221 3.84616 19.5754 3.68598 19.06C3.56305 18.6644 3.78405 18.2441 4.1796 18.1212C4.57515 17.9983 4.99547 18.2193 5.1184 18.6148C5.21822 18.936 5.35254 19.1595 5.53401 19.341C5.71548 19.5225 5.93901 19.6568 6.2602 19.7566C6.65575 19.8795 6.87675 20.2998 6.75382 20.6954ZM4.13468 6.79112C4.54887 6.79469 4.88175 7.13337 4.87818 7.54756C4.87501 7.9153 4.875 8.31379 4.875 8.75V10.1136C4.875 10.5278 4.53921 10.8636 4.125 10.8636C3.71079 10.8636 3.375 10.5278 3.375 10.1136L3.375 8.7477C3.375 8.31395 3.375 7.90941 3.37824 7.53462C3.38181 7.12043 3.72048 6.78755 4.13468 6.79112ZM4.13467 16.7089C3.72048 16.7125 3.38181 16.3796 3.37823 15.9654C3.375 15.5906 3.375 15.186 3.375 14.7523L3.375 13.3864C3.375 12.9722 3.71079 12.6364 4.125 12.6364C4.53921 12.6364 4.875 12.9721 4.875 13.3864L4.875 14.75C4.875 15.1862 4.87501 15.5847 4.87818 15.9524C4.88175 16.3666 4.54887 16.7053 4.13467 16.7089Z" fill="#848689"/>
</svg>
