<svg width="22" height="19" viewBox="0 0 22 19" fill="none" xmlns="http://www.w3.org/2000/svg">
<path d="M1.34878 8.14365C1.34878 8.14365 11.0789 4.03865 14.4534 2.59318C15.747 2.01504 20.134 0.164828 20.134 0.164828C20.134 0.164828 22.1588 -0.644569 21.99 1.32119C21.9337 2.13067 21.4838 4.96368 21.0339 8.02802C20.3589 12.3644 19.6278 17.1054 19.6278 17.1054C19.6278 17.1054 19.5153 18.4352 18.5592 18.6665C17.6031 18.8977 16.0282 17.8571 15.747 17.6257C15.522 17.4523 11.5288 14.8505 10.0665 13.5785C9.67275 13.2316 9.22283 12.5378 10.1227 11.7284C12.1475 9.82038 14.5659 7.44988 16.0282 5.94664C16.7032 5.25279 17.378 3.63391 14.5659 5.59967C10.5727 8.43276 6.63564 11.0924 6.63564 11.0924C6.63564 11.0924 5.73572 11.6705 4.04845 11.1501C2.3611 10.6299 0.392589 9.93601 0.392589 9.93601C0.392589 9.93601 -0.957168 9.06876 1.34878 8.14365Z" fill="white"/>
</svg>
