<svg width="105" height="104" viewBox="0 0 105 104" fill="none" xmlns="http://www.w3.org/2000/svg">
<rect x="0.666626" width="103.667" height="104" rx="12" fill="white" fill-opacity="0.04"/>
<rect x="1.16663" y="0.5" width="102.667" height="103" rx="11.5" stroke="url(#paint0_linear_4016_3219)" stroke-opacity="0.08" stroke-linecap="round"/>
<path fill-rule="evenodd" clip-rule="evenodd" d="M53.25 16C53.25 15.5858 52.9142 15.25 52.5 15.25C52.0858 15.25 51.75 15.5858 51.75 16V17.0029H49.9999C49.3516 17.0077 48.7714 17.019 48.25 17.0462V34.9529C48.7714 34.9801 49.3516 34.9914 49.9999 34.9962H51.75V36C51.75 36.4142 52.0858 36.75 52.5 36.75C52.9142 36.75 53.25 36.4142 53.25 36V34.9962H55C55.6483 34.9914 56.2286 34.9801 56.75 34.9529V17.0462C56.2286 17.019 55.6483 17.0077 55 17.0029H53.25V16ZM53.25 34.9962V34.3333C53.25 33.9191 52.9142 33.5833 52.5 33.5833C52.0858 33.5833 51.75 33.9191 51.75 34.3333V34.9962H53.25ZM53.25 17.0029V17.6667C53.25 18.0809 52.9142 18.4167 52.5 18.4167C52.0858 18.4167 51.75 18.0809 51.75 17.6667V17.0029H53.25ZM53.25 21C53.25 20.5858 52.9142 20.25 52.5 20.25C52.0858 20.25 51.75 20.5858 51.75 21V24.3333C51.75 24.7475 52.0858 25.0833 52.5 25.0833C52.9142 25.0833 53.25 24.7475 53.25 24.3333V21ZM53.25 27.6667C53.25 27.2525 52.9142 26.9167 52.5 26.9167C52.0858 26.9167 51.75 27.2525 51.75 27.6667V31C51.75 31.4142 52.0858 31.75 52.5 31.75C52.9142 31.75 53.25 31.4142 53.25 31V27.6667ZM46.75 17.2022C45.8493 17.3632 45.1904 17.6523 44.6716 18.1711C43.8999 18.9428 43.6365 20.0241 43.5466 21.75H46.75V17.2022ZM43.5056 23.25C43.5 23.7835 43.5 24.3648 43.5 24.9995V26.9995C43.5 27.6346 43.5 28.2163 43.5056 28.75H46.75V23.25H43.5056ZM44.6716 33.828C43.9001 33.0565 43.6366 31.9753 43.5467 30.25H46.75V34.7969C45.8493 34.6359 45.1904 34.3468 44.6716 33.828ZM58.25 21.75V17.2022C59.1507 17.3632 59.8096 17.6523 60.3284 18.1711C61.1001 18.9428 61.3635 20.0241 61.4534 21.75H58.25ZM61.4944 23.25H58.25V28.75H61.4944C61.5 28.2163 61.5 27.6346 61.5 26.9995V24.9995C61.5 24.3648 61.5 23.7835 61.4944 23.25ZM58.25 30.25H61.4533C61.3634 31.9753 61.0999 33.0565 60.3284 33.828C59.8096 34.3468 59.1507 34.6359 58.25 34.7969V30.25Z" fill="url(#paint1_linear_4016_3219)"/>
<path d="M41.0823 65V56.4619H37.9788V55.1357H45.7171V56.4619H42.6136V65H41.0823ZM45.6359 65V57.5762H47.1193V58.6973H47.2355C47.3677 58.3008 47.6001 57.9932 47.9328 57.7744C48.27 57.5557 48.6847 57.4463 49.1769 57.4463C49.3 57.4463 49.4207 57.4531 49.5392 57.4668C49.6577 57.4805 49.7534 57.4964 49.8263 57.5146V58.8818C49.6942 58.8545 49.562 58.834 49.4298 58.8203C49.3022 58.8066 49.1678 58.7998 49.0265 58.7998C48.6483 58.7998 48.3156 58.8727 48.0285 59.0186C47.7459 59.1644 47.5226 59.3695 47.3586 59.6338C47.199 59.8936 47.1193 60.2035 47.1193 60.5635V65H45.6359ZM50.4355 65V57.5762H51.9258V65H50.4355ZM51.1875 56.25C50.9323 56.25 50.7135 56.1589 50.5312 55.9766C50.349 55.7943 50.2578 55.5755 50.2578 55.3203C50.2578 55.0651 50.349 54.8486 50.5312 54.6709C50.7135 54.4886 50.9323 54.3975 51.1875 54.3975C51.4427 54.3975 51.6615 54.4886 51.8438 54.6709C52.026 54.8486 52.1172 55.0651 52.1172 55.3203C52.1172 55.5755 52.026 55.7943 51.8438 55.9766C51.6615 56.1589 51.4427 56.25 51.1875 56.25ZM53.2391 65V57.5762H54.7225V58.7178H54.8387C55.0028 58.3076 55.258 57.9909 55.6043 57.7676C55.9552 57.5443 56.3745 57.4326 56.8621 57.4326C57.1994 57.4326 57.5024 57.4873 57.7713 57.5967C58.0402 57.7061 58.2704 57.861 58.4618 58.0615C58.6577 58.2575 58.8104 58.4899 58.9198 58.7588H59.036C59.159 58.4899 59.3322 58.2575 59.5555 58.0615C59.7788 57.861 60.0386 57.7061 60.3348 57.5967C60.6356 57.4873 60.9546 57.4326 61.2918 57.4326C61.7931 57.4326 62.2215 57.5306 62.577 57.7266C62.9325 57.918 63.2036 58.196 63.3905 58.5605C63.5773 58.9251 63.6707 59.3649 63.6707 59.8799V65H62.1873V60.2354C62.1873 59.8936 62.1349 59.611 62.0301 59.3877C61.9253 59.1598 61.7658 58.9889 61.5516 58.875C61.342 58.7611 61.0776 58.7041 60.7586 58.7041C60.4442 58.7041 60.1685 58.777 59.9315 58.9229C59.6991 59.0641 59.5168 59.2555 59.3846 59.4971C59.257 59.734 59.1932 60.0029 59.1932 60.3037V65H57.7098V60.085C57.7098 59.8024 57.6506 59.5586 57.5321 59.3535C57.4181 59.1439 57.2541 58.9844 57.0399 58.875C56.8257 58.7611 56.5728 58.7041 56.2811 58.7041C55.9849 58.7041 55.7183 58.7816 55.4813 58.9365C55.2489 59.0915 55.0643 59.3011 54.9276 59.5654C54.7909 59.8252 54.7225 60.1169 54.7225 60.4404V65H53.2391ZM38.8128 85L35.306 75.1357H36.9739L39.6058 83.1475H39.722L42.3538 75.1357H44.0286L40.515 85H38.8128ZM44.7541 85V77.5762H46.2443V85H44.7541ZM45.506 76.25C45.2508 76.25 45.0321 76.1589 44.8498 75.9766C44.6675 75.7943 44.5763 75.5755 44.5763 75.3203C44.5763 75.0651 44.6675 74.8486 44.8498 74.6709C45.0321 74.4886 45.2508 74.3975 45.506 74.3975C45.7612 74.3975 45.98 74.4886 46.1623 74.6709C46.3446 74.8486 46.4357 75.0651 46.4357 75.3203C46.4357 75.5755 46.3446 75.7943 46.1623 75.9766C45.98 76.1589 45.7612 76.25 45.506 76.25ZM50.2646 85.123C49.6449 85.123 49.1025 84.9681 48.6377 84.6582C48.1774 84.3438 47.8197 83.8994 47.5645 83.3252C47.3138 82.751 47.1885 82.0742 47.1885 81.2949V81.2812C47.1885 80.4974 47.3138 79.8184 47.5645 79.2441C47.8151 78.6699 48.1706 78.2279 48.6309 77.918C49.0911 77.6035 49.6357 77.4463 50.2646 77.4463C50.6064 77.4463 50.9255 77.501 51.2217 77.6104C51.5179 77.7152 51.7799 77.8656 52.0078 78.0615C52.2357 78.2529 52.4157 78.4831 52.5479 78.752H52.6572V74.6641H54.1475V85H52.6572V83.8311H52.5479C52.402 84.0999 52.2174 84.3324 51.9941 84.5283C51.7708 84.7197 51.5133 84.8678 51.2217 84.9727C50.93 85.0729 50.611 85.123 50.2646 85.123ZM50.6885 83.8516C51.0986 83.8516 51.4541 83.749 51.7549 83.5439C52.0557 83.3389 52.2858 83.0449 52.4453 82.6621C52.6048 82.2747 52.6846 81.819 52.6846 81.2949V81.2812C52.6846 80.7526 52.6025 80.2969 52.4385 79.9141C52.279 79.5312 52.0488 79.2373 51.748 79.0322C51.4518 78.8226 51.0986 78.7178 50.6885 78.7178C50.2783 78.7178 49.9229 78.8226 49.6221 79.0322C49.3258 79.2373 49.098 79.5312 48.9385 79.9141C48.7835 80.2923 48.7061 80.748 48.7061 81.2812V81.2949C48.7061 81.8236 48.7835 82.2793 48.9385 82.6621C49.098 83.0449 49.3258 83.3389 49.6221 83.5439C49.9229 83.749 50.2783 83.8516 50.6885 83.8516ZM58.6258 85.1436C57.9012 85.1436 57.2791 84.9886 56.7596 84.6787C56.2401 84.3643 55.839 83.9199 55.5565 83.3457C55.2785 82.7715 55.1395 82.0924 55.1395 81.3086V81.3018C55.1395 80.527 55.2785 79.8503 55.5565 79.2715C55.839 78.6927 56.2355 78.2415 56.7459 77.918C57.2609 77.5944 57.8625 77.4326 58.5506 77.4326C59.2433 77.4326 59.8381 77.5876 60.3348 77.8975C60.8361 78.2074 61.2212 78.6426 61.4901 79.2031C61.759 79.7591 61.8934 80.4108 61.8934 81.1582V81.6777H55.8914V80.6182H61.1551L60.4442 81.6025V81.0078C60.4442 80.4792 60.3621 80.0417 60.1981 79.6953C60.0386 79.3444 59.8176 79.0824 59.535 78.9092C59.2524 78.736 58.9266 78.6494 58.5575 78.6494C58.1883 78.6494 57.8579 78.7406 57.5662 78.9229C57.2791 79.1006 57.0513 79.3649 56.8827 79.7158C56.7186 80.0667 56.6366 80.4974 56.6366 81.0078V81.6025C56.6366 82.0902 56.7186 82.5072 56.8827 82.8535C57.0467 83.1999 57.2791 83.4642 57.5799 83.6465C57.8853 83.8288 58.2453 83.9199 58.66 83.9199C58.979 83.9199 59.2524 83.8766 59.4803 83.79C59.7127 83.6989 59.9019 83.5872 60.0477 83.4551C60.1981 83.3229 60.3006 83.193 60.3553 83.0654L60.3827 83.0107H61.8182L61.8045 83.0723C61.7407 83.3184 61.6291 83.5645 61.4696 83.8105C61.3101 84.0521 61.0982 84.2731 60.8338 84.4736C60.5741 84.6742 60.2596 84.8359 59.8905 84.959C59.5259 85.082 59.1043 85.1436 58.6258 85.1436ZM65.9616 85.1436C65.237 85.1436 64.6104 84.9886 64.0817 84.6787C63.5576 84.3688 63.1543 83.9268 62.8718 83.3525C62.5892 82.7738 62.4479 82.0879 62.4479 81.2949V81.2812C62.4479 80.4837 62.5892 79.7979 62.8718 79.2236C63.1589 78.6494 63.5645 78.2074 64.0886 77.8975C64.6172 77.5876 65.2415 77.4326 65.9616 77.4326C66.6862 77.4326 67.3106 77.5876 67.8346 77.8975C68.3587 78.2028 68.7621 78.6449 69.0446 79.2236C69.3317 79.7979 69.4753 80.4837 69.4753 81.2812V81.2949C69.4753 82.0879 69.3317 82.7738 69.0446 83.3525C68.7621 83.9268 68.3587 84.3688 67.8346 84.6787C67.3151 84.9886 66.6908 85.1436 65.9616 85.1436ZM65.9616 83.8994C66.3854 83.8994 66.7455 83.7969 67.0417 83.5918C67.3379 83.3822 67.5635 83.0837 67.7184 82.6963C67.8734 82.3089 67.9509 81.8418 67.9509 81.2949V81.2812C67.9509 80.7298 67.8734 80.2604 67.7184 79.873C67.5635 79.4857 67.3379 79.1895 67.0417 78.9844C66.7455 78.7747 66.3854 78.6699 65.9616 78.6699C65.5378 78.6699 65.1777 78.7747 64.8815 78.9844C64.5853 79.1895 64.3574 79.4857 64.1979 79.873C64.043 80.2604 63.9655 80.7298 63.9655 81.2812V81.2949C63.9655 81.8418 64.043 82.3089 64.1979 82.6963C64.3574 83.0837 64.5853 83.3822 64.8815 83.5918C65.1777 83.7969 65.5378 83.8994 65.9616 83.8994Z" fill="white"/>
<defs>
<linearGradient id="paint0_linear_4016_3219" x1="52.5" y1="0" x2="52.5" y2="104" gradientUnits="userSpaceOnUse">
<stop stop-color="white"/>
<stop offset="1" stop-color="white" stop-opacity="0"/>
</linearGradient>
<linearGradient id="paint1_linear_4016_3219" x1="48.5064" y1="15.25" x2="48.5064" y2="36.75" gradientUnits="userSpaceOnUse">
<stop stop-color="#FF6438"/>
<stop offset="1" stop-color="#FF4E1D"/>
</linearGradient>
</defs>
</svg>
