<svg width="20" height="20" viewBox="0 0 20 20" fill="none" xmlns="http://www.w3.org/2000/svg">
<path d="M18 4.42871C19.1046 4.42871 20 5.32414 20 6.42871V8.08301C20 8.96623 19.4202 9.74523 18.5742 9.99902L11.1494 12.2266C10.3997 12.4515 9.60034 12.4515 8.85059 12.2266L1.42578 9.99902C0.579812 9.74523 0 8.96623 0 8.08301V6.42871C5.15413e-07 5.32414 0.895431 4.42871 2 4.42871H18ZM10 7.10742C9.58579 7.10742 9.25 7.44321 9.25 7.85742V9.57129C9.25 9.9855 9.58579 10.3213 10 10.3213C10.4142 10.3213 10.75 9.9855 10.75 9.57129V7.85742C10.75 7.44321 10.4142 7.10742 10 7.10742Z" fill="#FF4E1D"/>
<path d="M19.9165 14.9998C19.9164 17.623 17.7898 19.7498 15.1665 19.7498H4.8335C2.21021 19.7498 0.0836015 17.623 0.0834961 14.9998V11.0085C0.360601 11.1901 0.66533 11.3375 0.994629 11.4363L8.41943 13.6638C9.45034 13.9731 10.5497 13.9731 11.5806 13.6638L19.0054 11.4363C19.3347 11.3375 19.6394 11.1901 19.9165 11.0085V14.9998ZM19.853 8.83179C19.6304 9.38262 19.1691 9.82041 18.5747 9.99878L11.1489 12.2263C10.3994 12.4511 9.60064 12.4511 8.85107 12.2263L1.42529 9.99878C0.830741 9.82037 0.368555 9.38278 0.145996 8.83179L10.0005 10.4998L19.853 8.83179Z" fill="#FF4E1D"/>
<path d="M13.3334 4.42855V3C13.3334 1.89543 12.438 1 11.3334 1H8.66675C7.56218 1 6.66675 1.89543 6.66675 3L6.66675 4.42855" stroke="#FF4E1D" stroke-width="1.5"/>
</svg>
