<svg width="20" height="20" viewBox="0 0 20 20" fill="none" xmlns="http://www.w3.org/2000/svg">
<path fill-rule="evenodd" clip-rule="evenodd" d="M10 20C15.5228 20 20 15.5228 20 10C20 4.47715 15.5228 0 10 0C4.47715 0 0 4.47715 0 10C0 15.5228 4.47715 20 10 20ZM13.9346 3.59158C14.217 3.70662 14.4017 3.98121 14.4017 4.28616V7.00067C14.4017 7.41489 14.0659 7.75067 13.6517 7.75067H11C10.6983 7.75067 10.4259 7.56984 10.3088 7.29174C10.1917 7.01364 10.2527 6.69245 10.4635 6.47659L11.225 5.69705C9.7795 5.25143 8.14674 5.61303 7.00097 6.78596C5.33301 8.49347 5.33301 11.269 7.00097 12.9765C8.65934 14.6742 11.3407 14.6742 12.999 12.9765C13.6769 12.2826 14.0805 11.4112 14.2069 10.5045C14.2651 10.0865 14.5972 9.73495 15.0192 9.73495C15.4246 9.73495 15.7609 10.0595 15.7217 10.463C15.5957 11.7606 15.0471 13.0265 14.072 14.0247C11.8252 16.3248 8.17483 16.3248 5.92796 14.0247C3.69068 11.7344 3.69068 8.02812 5.92796 5.7378C7.66551 3.95905 10.244 3.55465 12.3647 4.53037L13.1152 3.76208C13.3283 3.54393 13.6522 3.47653 13.9346 3.59158Z" fill="#FF4E1D"/>
</svg>
