<svg width="32" height="32" viewBox="0 0 32 32" fill="none" xmlns="http://www.w3.org/2000/svg">
<circle cx="16" cy="16" r="15" fill="white" fill-opacity="0.08" stroke="url(#paint0_linear_4007_1654)" stroke-opacity="0.08"/>
<path d="M10.9219 21.4531C10.7917 21.3229 10.7057 21.1719 10.6641 21C10.6224 20.8229 10.6224 20.6484 10.6641 20.4766C10.7057 20.3047 10.7891 20.1562 10.9141 20.0312L14.5781 16.3672L10.9141 12.7109C10.7891 12.5859 10.7057 12.4375 10.6641 12.2656C10.6224 12.0938 10.6224 11.9219 10.6641 11.75C10.7057 11.5729 10.7917 11.4193 10.9219 11.2891C11.0469 11.1641 11.1953 11.0807 11.3672 11.0391C11.5443 10.9922 11.7188 10.9922 11.8906 11.0391C12.0677 11.0807 12.2188 11.1615 12.3438 11.2812L16 14.9453L19.6641 11.2891C19.7891 11.1641 19.9349 11.0807 20.1016 11.0391C20.2734 10.9922 20.4453 10.9922 20.6172 11.0391C20.7943 11.0807 20.9453 11.1667 21.0703 11.2969C21.2057 11.4219 21.2943 11.5729 21.3359 11.75C21.3776 11.9219 21.3776 12.0938 21.3359 12.2656C21.2943 12.4375 21.2083 12.5859 21.0781 12.7109L17.4297 16.3672L21.0781 20.0312C21.2083 20.1562 21.2943 20.3047 21.3359 20.4766C21.3776 20.6484 21.3776 20.8229 21.3359 21C21.2943 21.1719 21.2057 21.3203 21.0703 21.4453C20.9453 21.5755 20.7943 21.6641 20.6172 21.7109C20.4453 21.7526 20.2734 21.7526 20.1016 21.7109C19.9349 21.6693 19.7891 21.5833 19.6641 21.4531L16 17.7969L12.3438 21.4609C12.2188 21.5807 12.0677 21.6641 11.8906 21.7109C11.7188 21.7526 11.5443 21.7526 11.3672 21.7109C11.1953 21.6641 11.0469 21.5781 10.9219 21.4531Z" fill="white" fill-opacity="0.88"/>
<defs>
<linearGradient id="paint0_linear_4007_1654" x1="16" y1="1" x2="16" y2="31" gradientUnits="userSpaceOnUse">
<stop stop-color="white"/>
<stop offset="1" stop-color="white" stop-opacity="0"/>
</linearGradient>
</defs>
</svg>
