<svg width="87" height="77" viewBox="0 0 87 77" fill="none" xmlns="http://www.w3.org/2000/svg">
<path d="M63.2035 11.1271V6.31107H65.3105C65.8908 6.31107 66.3382 6.45208 66.6528 6.7341C66.9673 7.01069 67.1246 7.39576 67.1246 7.88929V7.89742C67.1246 8.19571 67.0432 8.46959 66.8805 8.71907C66.7233 8.96312 66.5009 9.1421 66.2135 9.25599L67.2792 11.1271H66.067L65.1315 9.43496C65.1261 9.43496 65.1179 9.43496 65.1071 9.43496C65.0962 9.43496 65.0854 9.43496 65.0746 9.43496H64.2692V11.1271H63.2035ZM64.2692 8.60518H65.1884C65.4542 8.60518 65.6603 8.54281 65.8067 8.41807C65.9531 8.29333 66.0264 8.12521 66.0264 7.91369V7.90556C66.0264 7.69947 65.9504 7.53405 65.7986 7.40931C65.6467 7.27915 65.4406 7.21407 65.1803 7.21407H64.2692V8.60518ZM68.7842 8.68653C68.7842 8.00318 68.6215 7.38491 68.2961 6.83172C67.9707 6.27853 67.5314 5.83924 66.9782 5.51383C66.425 5.18843 65.8067 5.02573 65.1234 5.02573H65.0664C64.3831 5.02573 63.7621 5.18843 63.2035 5.51383C62.6503 5.83924 62.211 6.27853 61.8856 6.83172C61.5602 7.38491 61.3975 8.00318 61.3975 8.68653V8.74347C61.3975 9.42682 61.5602 10.0478 61.8856 10.6064C62.211 11.1596 62.6503 11.5989 63.2035 11.9243C63.7621 12.2497 64.3831 12.4124 65.0664 12.4124H65.1234C65.8067 12.4124 66.425 12.2497 66.9782 11.9243C67.5314 11.5989 67.9707 11.1596 68.2961 10.6064C68.6215 10.0478 68.7842 9.42682 68.7842 8.74347V8.68653ZM69.8255 8.68653V8.74347C69.8255 9.39971 69.7034 10.0153 69.4594 10.5901C69.2207 11.1596 68.8872 11.6586 68.4588 12.087C68.0303 12.5155 67.5314 12.8517 66.9619 13.0958C66.3924 13.3344 65.7796 13.4537 65.1234 13.4537H65.0664C64.4102 13.4537 63.7946 13.3344 63.2197 13.0958C62.6503 12.8517 62.1513 12.5155 61.7229 12.087C61.2944 11.6586 60.9582 11.1596 60.7141 10.5901C60.4755 10.0153 60.3562 9.39971 60.3562 8.74347V8.68653C60.3562 8.0303 60.4755 7.41745 60.7141 6.84799C60.9582 6.27853 61.2944 5.77958 61.7229 5.35113C62.1513 4.92268 62.6503 4.58914 63.2197 4.35051C63.7946 4.10646 64.4102 3.98443 65.0664 3.98443H65.1234C65.7796 3.98443 66.3924 4.10646 66.9619 4.35051C67.5314 4.58914 68.0303 4.92268 68.4588 5.35113C68.8872 5.77958 69.2207 6.27853 69.4594 6.84799C69.7034 7.41745 69.8255 8.0303 69.8255 8.68653Z" fill="url(#paint0_linear_4007_1625)"/>
<g filter="url(#filter0_iii_4007_1625)">
<path d="M0.63623 3.79736H45.433L63.7666 27.6506H0.63623V3.79736Z" fill="white" fill-opacity="0.88"/>
<path d="M63.7666 27.6506L12.0738 36.7216L12.0738 64.5504L63.7666 27.6506Z" fill="white" fill-opacity="0.88"/>
<path d="M12.0738 64.5504L36.1821 55.1435L36.1821 76.421L12.0738 64.5504Z" fill="white" fill-opacity="0.88"/>
</g>
<path d="M86.3638 76H48.5005L36.0005 55H73.3638L86.3638 76ZM69.8599 62.2969C69.011 62.2969 68.2791 62.474 67.6646 62.8281C67.0552 63.1823 66.5838 63.6927 66.2505 64.3594C65.9172 65.0208 65.7505 65.8073 65.7505 66.7188V66.7344C65.7505 67.6562 65.9146 68.4479 66.2427 69.1094C66.576 69.7708 67.05 70.2813 67.6646 70.6406C68.2791 70.9948 69.011 71.1719 69.8599 71.1719C70.714 71.1719 71.4458 70.9948 72.0552 70.6406C72.6697 70.2813 73.1411 69.7708 73.4692 69.1094C73.8026 68.4479 73.9692 67.6562 73.9692 66.7344V66.7188C73.9692 65.8021 73.8026 65.013 73.4692 64.3516C73.1359 63.6901 72.6619 63.1823 72.0474 62.8281C71.438 62.474 70.7088 62.2969 69.8599 62.2969ZM50.6558 59.7266V71H52.6714V67.2734H55.1558C55.9213 67.2734 56.5907 67.1172 57.1636 66.8047C57.7364 66.487 58.1844 66.0468 58.5073 65.4844C58.8302 64.9167 58.9917 64.2578 58.9917 63.5078V63.4922C58.9917 62.737 58.8302 62.0781 58.5073 61.5156C58.1844 60.948 57.7364 60.5078 57.1636 60.1953C56.5907 59.8828 55.9213 59.7266 55.1558 59.7266H50.6558ZM64.6489 62.3203C64.0866 62.3203 63.615 62.4481 63.2349 62.7031C62.8599 62.9583 62.5995 63.3152 62.4536 63.7734H62.3208V62.4609H60.3755V71H62.3208V66.0391C62.3208 65.6328 62.4093 65.2812 62.5864 64.9844C62.7635 64.6824 63.0136 64.4505 63.3364 64.2891C63.6593 64.1277 64.0371 64.0469 64.4692 64.0469C64.6409 64.0469 64.8053 64.0573 64.9614 64.0781C65.1227 64.0938 65.2819 64.1198 65.438 64.1562V62.4141C65.3443 62.388 65.2242 62.3672 65.0786 62.3516C64.9381 62.3308 64.7946 62.3203 64.6489 62.3203ZM69.8599 63.8672C70.3077 63.8672 70.688 63.9818 71.0005 64.2109C71.3182 64.4349 71.5604 64.7604 71.7271 65.1875C71.8937 65.6094 71.9771 66.1224 71.9771 66.7266V66.7422C71.9771 67.3411 71.8937 67.8542 71.7271 68.2812C71.5604 68.7031 71.3182 69.0287 71.0005 69.2578C70.688 69.4817 70.3077 69.5938 69.8599 69.5938C69.4068 69.5937 69.0213 69.4817 68.7036 69.2578C68.3912 69.0339 68.1515 68.7083 67.9849 68.2812C67.8182 67.8542 67.7349 67.3411 67.7349 66.7422V66.7266C67.7349 66.1224 67.8182 65.6094 67.9849 65.1875C68.1515 64.7605 68.3938 64.4349 68.7114 64.2109C69.0291 63.9818 69.412 63.8672 69.8599 63.8672ZM54.6636 61.3672C55.3875 61.3672 55.9501 61.5521 56.3511 61.9219C56.7521 62.2917 56.9526 62.8177 56.9526 63.5V63.5156C56.9526 64.1927 56.7521 64.7188 56.3511 65.0938C55.9501 65.4635 55.3875 65.6484 54.6636 65.6484H52.6714V61.3672H54.6636Z" fill="white"/>
<defs>
<filter id="filter0_iii_4007_1625" x="-1.04205" y="2.11909" width="66.4869" height="75.9801" filterUnits="userSpaceOnUse" color-interpolation-filters="sRGB">
<feFlood flood-opacity="0" result="BackgroundImageFix"/>
<feBlend mode="normal" in="SourceGraphic" in2="BackgroundImageFix" result="shape"/>
<feColorMatrix in="SourceAlpha" type="matrix" values="0 0 0 0 0 0 0 0 0 0 0 0 0 0 0 0 0 0 127 0" result="hardAlpha"/>
<feMorphology radius="1.11885" operator="dilate" in="SourceAlpha" result="effect1_innerShadow_4007_1625"/>
<feOffset dx="1.11885" dy="1.67828"/>
<feGaussianBlur stdDeviation="2.14447"/>
<feComposite in2="hardAlpha" operator="arithmetic" k2="-1" k3="1"/>
<feColorMatrix type="matrix" values="0 0 0 0 0.701961 0 0 0 0 0.701961 0 0 0 0 0.701961 0 0 0 0.2 0"/>
<feBlend mode="plus-lighter" in2="shape" result="effect1_innerShadow_4007_1625"/>
<feColorMatrix in="SourceAlpha" type="matrix" values="0 0 0 0 0 0 0 0 0 0 0 0 0 0 0 0 0 0 127 0" result="hardAlpha"/>
<feMorphology radius="1.95799" operator="dilate" in="SourceAlpha" result="effect2_innerShadow_4007_1625"/>
<feOffset dx="1.67828" dy="1.67828"/>
<feGaussianBlur stdDeviation="7.07725"/>
<feComposite in2="hardAlpha" operator="arithmetic" k2="-1" k3="1"/>
<feColorMatrix type="matrix" values="0 0 0 0 1 0 0 0 0 1 0 0 0 0 1 0 0 0 0.5 0"/>
<feBlend mode="normal" in2="effect1_innerShadow_4007_1625" result="effect2_innerShadow_4007_1625"/>
<feColorMatrix in="SourceAlpha" type="matrix" values="0 0 0 0 0 0 0 0 0 0 0 0 0 0 0 0 0 0 127 0" result="hardAlpha"/>
<feMorphology radius="1.95799" operator="dilate" in="SourceAlpha" result="effect3_innerShadow_4007_1625"/>
<feOffset dx="-1.67828" dy="-1.67828"/>
<feGaussianBlur stdDeviation="14.7573"/>
<feComposite in2="hardAlpha" operator="arithmetic" k2="-1" k3="1"/>
<feColorMatrix type="matrix" values="0 0 0 0 1 0 0 0 0 1 0 0 0 0 1 0 0 0 0.9 0"/>
<feBlend mode="overlay" in2="effect2_innerShadow_4007_1625" result="effect3_innerShadow_4007_1625"/>
</filter>
<linearGradient id="paint0_linear_4007_1625" x1="61.5322" y1="10.3372" x2="61.5322" y2="30.3997" gradientUnits="userSpaceOnUse">
<stop stop-color="white"/>
<stop offset="1" stop-color="white" stop-opacity="0"/>
</linearGradient>
</defs>
</svg>
