<svg width="25" height="24" viewBox="0 0 25 24" fill="none" xmlns="http://www.w3.org/2000/svg">
<path d="M21.955 7.92003C21.545 7.92003 21.205 7.58003 21.205 7.17003V5.35003C21.205 4.62003 20.615 4.03003 19.885 4.03003H5.365C4.635 4.03003 4.045 4.62003 4.045 5.35003V7.18003C4.045 7.59003 3.705 7.93003 3.295 7.93003C2.885 7.93003 2.545 7.59003 2.545 7.17003V5.35003C2.545 3.79003 3.815 2.53003 5.365 2.53003H19.885C21.445 2.53003 22.705 3.80003 22.705 5.35003V7.18003C22.705 7.59003 22.375 7.92003 21.955 7.92003Z" fill="#848689"/>
<path d="M12.625 21.47C12.215 21.47 11.875 21.13 11.875 20.72V4.10999C11.875 3.69999 12.215 3.35999 12.625 3.35999C13.035 3.35999 13.375 3.69999 13.375 4.10999V20.72C13.375 21.14 13.035 21.47 12.625 21.47Z" fill="#848689"/>
<path d="M16.565 21.47H8.685C8.275 21.47 7.935 21.13 7.935 20.72C7.935 20.31 8.275 19.97 8.685 19.97H16.565C16.975 19.97 17.315 20.31 17.315 20.72C17.315 21.13 16.975 21.47 16.565 21.47Z" fill="#848689"/>
</svg>
