<svg width="20" height="16" viewBox="0 0 20 16" fill="none" xmlns="http://www.w3.org/2000/svg">
<path d="M19.7065 8.70679L12.7065 15.7068C12.5667 15.8466 12.3885 15.9418 12.1946 15.9804C12.0006 16.0189 11.7996 15.9991 11.6169 15.9235C11.4342 15.8478 11.278 15.7197 11.1681 15.5552C11.0583 15.3908 10.9996 15.1975 10.9995 14.9998V11.9959C7.36384 11.9891 5.36864 11.9725 1.60014 14.7996C1.42965 14.9275 1.22274 14.9976 1.0096 14.9996C0.796465 15.0017 0.588249 14.9356 0.415328 14.811C0.242408 14.6863 0.113831 14.5097 0.0483531 14.3069C-0.0171246 14.104 -0.0160769 13.8856 0.0513433 13.6834C0.780908 11.2174 2.1983 9.01053 4.13737 7.32138C6.07644 5.63224 8.45684 4.53084 10.9995 4.14629V0.999787C10.9996 0.802037 11.0583 0.608738 11.1681 0.444329C11.278 0.279919 11.4342 0.151779 11.6169 0.0761092C11.7996 0.000439122 12.0006 -0.0193641 12.1946 0.0192034C12.3885 0.057771 12.5667 0.152978 12.7065 0.292787L19.7065 7.29279C19.7994 7.3856 19.8731 7.49581 19.9234 7.61713C19.9737 7.73844 19.9996 7.86847 19.9996 7.99979C19.9996 8.13111 19.9737 8.26114 19.9234 8.38245C19.8731 8.50376 19.7994 8.61397 19.7065 8.70679Z" fill="white"/>
</svg>
