<svg width="20" height="20" viewBox="0 0 20 20" fill="none" xmlns="http://www.w3.org/2000/svg">
<path d="M17.5816 16.5209C19.0889 14.7701 20 12.4915 20 10C20 7.50853 19.0889 5.22987 17.5816 3.47906L13.3089 7.75178C13.745 8.39249 14 9.16647 14 10C14 10.8335 13.745 11.6075 13.3089 12.2482L17.5816 16.5209Z" fill="#FF4E1D"/>
<path d="M16.5209 17.5816C14.7701 19.0889 12.4915 20 10 20C7.50853 20 5.22987 19.0889 3.47906 17.5816L7.75178 13.3089C8.39249 13.745 9.16647 14 10 14C10.8335 14 11.6075 13.745 12.2482 13.3089L16.5209 17.5816Z" fill="#FF4E1D"/>
<path d="M2.4184 16.5209L6.69112 12.2482C6.25495 11.6075 6 10.8335 6 10C6 9.16647 6.25495 8.39249 6.69112 7.75178L2.4184 3.47906C0.911142 5.22987 0 7.50853 0 10C0 12.4915 0.911143 14.7701 2.4184 16.5209Z" fill="#FF4E1D"/>
<path d="M10 6C9.16647 6 8.39249 6.25495 7.75178 6.69112L3.47906 2.4184C5.22987 0.911142 7.50853 0 10 0C12.4915 0 14.7701 0.911143 16.5209 2.4184L12.2482 6.69112C11.6075 6.25495 10.8335 6 10 6Z" fill="#FF4E1D"/>
</svg>
