<svg width="16" height="16" viewBox="0 0 16 16" fill="none" xmlns="http://www.w3.org/2000/svg">
<path fill-rule="evenodd" clip-rule="evenodd" d="M0.333496 8.00434C0.333496 3.86469 3.69981 0.5 7.8335 0.5C11.9672 0.5 15.3335 3.86469 15.3335 8.00434C15.3335 12.1353 11.9672 15.5 7.8335 15.5C3.69981 15.5 0.333496 12.1353 0.333496 8.00434ZM10.5845 8.76339C10.6641 8.68379 10.7654 8.56078 10.7872 8.53184C10.903 8.37988 10.9609 8.19175 10.9609 8.00434C10.9609 7.79378 10.8958 7.59841 10.7727 7.43922C10.7626 7.42914 10.7429 7.40764 10.7171 7.37963C10.669 7.32722 10.5998 7.25198 10.5338 7.18596C9.94016 6.5492 8.39093 5.50724 7.58012 5.18886C7.45705 5.13893 7.14575 5.02967 6.97925 5.02243C6.81998 5.02243 6.66796 5.05861 6.52317 5.13097C6.34218 5.23227 6.1974 5.39146 6.11776 5.5796C6.06709 5.70984 5.98745 6.10058 5.98745 6.10781C5.90782 6.53473 5.86438 7.22938 5.86438 7.99638C5.86438 8.72793 5.90782 9.39291 5.97297 9.82706C5.97477 9.82885 5.98099 9.8599 5.99067 9.90814C6.02008 10.0548 6.08135 10.3603 6.14672 10.4855C6.30599 10.7894 6.61728 10.9776 6.95029 10.9776H6.97925C7.19643 10.9703 7.65251 10.7822 7.65251 10.775C8.41989 10.4566 9.93292 9.46527 10.541 8.8068L10.5845 8.76339Z" fill="white"/>
</svg>
