<svg width="261" height="66" viewBox="0 0 261 66" fill="none" xmlns="http://www.w3.org/2000/svg">
<path d="M103.368 13V3.13574H106.615C107.618 3.13574 108.465 3.33398 109.158 3.73047C109.855 4.12695 110.384 4.69206 110.744 5.42578C111.109 6.15951 111.291 7.03678 111.291 8.05762V8.07129C111.291 9.09212 111.109 9.97168 110.744 10.71C110.384 11.4437 109.858 12.0088 109.165 12.4053C108.472 12.8018 107.622 13 106.615 13H103.368ZM104.298 12.1592H106.561C107.367 12.1592 108.051 11.9974 108.611 11.6738C109.176 11.3457 109.607 10.8763 109.903 10.2656C110.2 9.65495 110.348 8.92578 110.348 8.07812V8.06445C110.348 7.2168 110.197 6.48763 109.896 5.87695C109.6 5.26628 109.17 4.79688 108.604 4.46875C108.044 4.14062 107.363 3.97656 106.561 3.97656H104.298V12.1592ZM113.362 13V5.6377H114.265V13H113.362ZM113.813 4.10645C113.636 4.10645 113.481 4.04264 113.349 3.91504C113.216 3.78288 113.15 3.62565 113.15 3.44336C113.15 3.26107 113.216 3.10612 113.349 2.97852C113.481 2.84635 113.636 2.78027 113.813 2.78027C114 2.78027 114.158 2.84635 114.285 2.97852C114.413 3.10612 114.477 3.26107 114.477 3.44336C114.477 3.62565 114.413 3.78288 114.285 3.91504C114.158 4.04264 114 4.10645 113.813 4.10645ZM118.667 13L115.919 5.6377H116.876L119.104 12.0293H119.187L121.415 5.6377H122.365L119.617 13H118.667ZM126.706 13.123C126.018 13.123 125.423 12.9681 124.922 12.6582C124.425 12.3483 124.042 11.9108 123.773 11.3457C123.505 10.7806 123.37 10.113 123.37 9.34277V9.3291C123.37 8.56348 123.505 7.89583 123.773 7.32617C124.042 6.75195 124.421 6.30762 124.908 5.99316C125.4 5.67415 125.975 5.51465 126.631 5.51465C127.292 5.51465 127.859 5.6696 128.333 5.97949C128.812 6.28483 129.178 6.71322 129.434 7.26465C129.693 7.81152 129.823 8.44727 129.823 9.17188V9.55469H123.835V8.81641H129.365L128.921 9.47949V9.1377C128.921 8.52246 128.823 8.00749 128.627 7.59277C128.436 7.1735 128.167 6.85677 127.82 6.64258C127.479 6.42839 127.082 6.32129 126.631 6.32129C126.175 6.32129 125.772 6.43066 125.421 6.64941C125.07 6.86816 124.792 7.18945 124.587 7.61328C124.386 8.03255 124.286 8.54069 124.286 9.1377V9.47949C124.286 10.0674 124.386 10.5732 124.587 10.9971C124.787 11.4209 125.07 11.7467 125.435 11.9746C125.799 12.2025 126.23 12.3164 126.727 12.3164C127.082 12.3164 127.399 12.2663 127.677 12.166C127.959 12.0658 128.194 11.9336 128.381 11.7695C128.568 11.6009 128.702 11.4232 128.784 11.2363L128.805 11.1816H129.714L129.693 11.2363C129.62 11.487 129.5 11.7262 129.331 11.9541C129.167 12.1774 128.957 12.3779 128.702 12.5557C128.447 12.7288 128.151 12.8678 127.813 12.9727C127.481 13.0729 127.112 13.123 126.706 13.123ZM135.579 13V5.6377H136.481V13H135.579ZM136.03 4.10645C135.853 4.10645 135.698 4.04264 135.565 3.91504C135.433 3.78288 135.367 3.62565 135.367 3.44336C135.367 3.26107 135.433 3.10612 135.565 2.97852C135.698 2.84635 135.853 2.78027 136.03 2.78027C136.217 2.78027 136.374 2.84635 136.502 2.97852C136.63 3.10612 136.693 3.26107 136.693 3.44336C136.693 3.62565 136.63 3.78288 136.502 3.91504C136.374 4.04264 136.217 4.10645 136.03 4.10645ZM138.833 13V5.6377H139.735V6.92969H139.817C140.013 6.48307 140.307 6.13672 140.699 5.89062C141.096 5.63997 141.579 5.51465 142.148 5.51465C142.973 5.51465 143.609 5.75163 144.056 6.22559C144.507 6.69499 144.732 7.35579 144.732 8.20801V13H143.837V8.43359C143.837 7.73633 143.675 7.20996 143.352 6.85449C143.033 6.49447 142.554 6.31445 141.916 6.31445C141.483 6.31445 141.103 6.41016 140.774 6.60156C140.446 6.79297 140.191 7.06185 140.009 7.4082C139.826 7.75456 139.735 8.16016 139.735 8.625V13H138.833ZM149.408 13.0479C148.711 13.0479 148.205 12.902 147.891 12.6104C147.581 12.3187 147.426 11.8379 147.426 11.168V6.38965H146.243V5.6377H147.426V3.72363H148.355V5.6377H150.044V6.38965H148.355V10.9629C148.355 11.4186 148.444 11.7467 148.622 11.9473C148.8 12.1478 149.096 12.248 149.511 12.248C149.616 12.248 149.707 12.2458 149.784 12.2412C149.862 12.2367 149.948 12.2298 150.044 12.2207V12.9932C149.939 13.0068 149.834 13.0182 149.729 13.0273C149.629 13.041 149.522 13.0479 149.408 13.0479ZM154.768 13.123C154.084 13.123 153.492 12.9704 152.99 12.665C152.489 12.3551 152.102 11.9154 151.828 11.3457C151.559 10.776 151.425 10.1016 151.425 9.32227V9.30859C151.425 8.5293 151.559 7.85482 151.828 7.28516C152.102 6.71549 152.489 6.27799 152.99 5.97266C153.492 5.66732 154.084 5.51465 154.768 5.51465C155.456 5.51465 156.048 5.66732 156.545 5.97266C157.046 6.27799 157.431 6.71549 157.7 7.28516C157.974 7.85482 158.11 8.5293 158.11 9.30859V9.32227C158.11 10.1016 157.974 10.776 157.7 11.3457C157.431 11.9154 157.046 12.3551 156.545 12.665C156.048 12.9704 155.456 13.123 154.768 13.123ZM154.768 12.3232C155.273 12.3232 155.706 12.2025 156.066 11.9609C156.431 11.7194 156.709 11.3753 156.9 10.9287C157.096 10.4775 157.194 9.94206 157.194 9.32227V9.30859C157.194 8.6888 157.096 8.1556 156.9 7.70898C156.709 7.25781 156.431 6.91374 156.066 6.67676C155.706 6.43522 155.273 6.31445 154.768 6.31445C154.262 6.31445 153.826 6.43522 153.462 6.67676C153.102 6.91374 152.824 7.25553 152.628 7.70215C152.437 8.14876 152.341 8.68424 152.341 9.30859V9.32227C152.341 9.94206 152.437 10.4775 152.628 10.9287C152.824 11.3753 153.102 11.7194 153.462 11.9609C153.826 12.2025 154.262 12.3232 154.768 12.3232Z" fill="url(#paint0_linear_4002_560)"/>
<path d="M11.8647 57V27.7266H1.52875V23.1797H27.4741V27.7266H17.1381V57H11.8647ZM33.7103 57.4922C31.3041 57.4922 29.2259 56.9766 27.4759 55.9453C25.7416 54.8984 24.4056 53.4219 23.4681 51.5156C22.5462 49.5938 22.0853 47.3359 22.0853 44.7422V44.7188C22.0853 42.1562 22.5541 39.9141 23.4916 37.9922C24.4291 36.0547 25.7494 34.5547 27.4525 33.4922C29.1556 32.4141 31.1556 31.875 33.4525 31.875C35.765 31.875 37.7494 32.3906 39.4056 33.4219C41.0775 34.4375 42.3666 35.8828 43.2728 37.7578C44.1791 39.6172 44.6322 41.7812 44.6322 44.25V45.9609H24.5931V42.375H42.1712L39.6634 45.7266V43.7578C39.6634 42.0234 39.3978 40.5859 38.8666 39.4453C38.3509 38.2891 37.6244 37.4297 36.6869 36.8672C35.765 36.3047 34.6947 36.0234 33.4759 36.0234C32.2728 36.0234 31.1947 36.3203 30.2416 36.9141C29.2884 37.5078 28.5384 38.3828 27.9916 39.5391C27.4447 40.6797 27.1712 42.0859 27.1712 43.7578V45.7266C27.1712 47.3203 27.4369 48.6875 27.9681 49.8281C28.515 50.9531 29.2884 51.8203 30.2884 52.4297C31.2884 53.0234 32.4681 53.3203 33.8275 53.3203C34.8275 53.3203 35.7103 53.1719 36.4759 52.875C37.2416 52.5625 37.8744 52.1562 38.3744 51.6562C38.89 51.1406 39.2494 50.5703 39.4525 49.9453L39.5228 49.7578H44.3509L44.3041 50.0156C44.1009 50.9844 43.7181 51.9141 43.1556 52.8047C42.5931 53.6953 41.8587 54.5 40.9525 55.2188C40.0619 55.9219 39.0072 56.4766 37.7884 56.8828C36.5697 57.2891 35.2103 57.4922 33.7103 57.4922ZM46.8137 57V23.1797H51.8997V57H46.8137ZM65.7297 57.4922C63.3234 57.4922 61.2453 56.9766 59.4953 55.9453C57.7609 54.8984 56.425 53.4219 55.4875 51.5156C54.5656 49.5938 54.1047 47.3359 54.1047 44.7422V44.7188C54.1047 42.1562 54.5734 39.9141 55.5109 37.9922C56.4484 36.0547 57.7687 34.5547 59.4719 33.4922C61.175 32.4141 63.175 31.875 65.4719 31.875C67.7844 31.875 69.7687 32.3906 71.425 33.4219C73.0969 34.4375 74.3859 35.8828 75.2922 37.7578C76.1984 39.6172 76.6516 41.7812 76.6516 44.25V45.9609H56.6125V42.375H74.1906L71.6828 45.7266V43.7578C71.6828 42.0234 71.4172 40.5859 70.8859 39.4453C70.3703 38.2891 69.6437 37.4297 68.7062 36.8672C67.7844 36.3047 66.7141 36.0234 65.4953 36.0234C64.2922 36.0234 63.2141 36.3203 62.2609 36.9141C61.3078 37.5078 60.5578 38.3828 60.0109 39.5391C59.4641 40.6797 59.1906 42.0859 59.1906 43.7578V45.7266C59.1906 47.3203 59.4562 48.6875 59.9875 49.8281C60.5344 50.9531 61.3078 51.8203 62.3078 52.4297C63.3078 53.0234 64.4875 53.3203 65.8469 53.3203C66.8469 53.3203 67.7297 53.1719 68.4953 52.875C69.2609 52.5625 69.8937 52.1562 70.3937 51.6562C70.9094 51.1406 71.2687 50.5703 71.4719 49.9453L71.5422 49.7578H76.3703L76.3234 50.0156C76.1203 50.9844 75.7375 51.9141 75.175 52.8047C74.6125 53.6953 73.8781 54.5 72.9719 55.2188C72.0812 55.9219 71.0266 56.4766 69.8078 56.8828C68.5891 57.2891 67.2297 57.4922 65.7297 57.4922ZM78.6222 65.2031V32.3438H83.7316V36.5625H83.8487C84.3331 35.5938 84.9503 34.7578 85.7003 34.0547C86.4659 33.3516 87.3409 32.8125 88.3253 32.4375C89.3097 32.0625 90.3878 31.875 91.5597 31.875C93.6534 31.875 95.4737 32.3984 97.0206 33.4453C98.5675 34.4766 99.7628 35.9531 100.607 37.875C101.45 39.7812 101.872 42.0469 101.872 44.6719V44.6953C101.872 47.3203 101.442 49.5859 100.583 51.4922C99.7394 53.3984 98.5519 54.875 97.0206 55.9219C95.4894 56.9688 93.6925 57.4922 91.63 57.4922C90.4737 57.4922 89.3878 57.3047 88.3722 56.9297C87.3722 56.5547 86.4894 56.0234 85.7237 55.3359C84.9581 54.6328 84.3253 53.8047 83.8253 52.8516H83.7316V65.2031H78.6222ZM90.2237 53.1094C91.5519 53.1094 92.7003 52.7734 93.6691 52.1016C94.6378 51.4141 95.38 50.4375 95.8956 49.1719C96.4112 47.9062 96.6691 46.4141 96.6691 44.6953V44.6719C96.6691 42.9219 96.4112 41.4141 95.8956 40.1484C95.38 38.8828 94.6378 37.9141 93.6691 37.2422C92.7003 36.5703 91.5519 36.2344 90.2237 36.2344C88.9425 36.2344 87.8097 36.5859 86.8253 37.2891C85.8409 37.9766 85.0675 38.9531 84.505 40.2188C83.9581 41.4688 83.6847 42.9531 83.6847 44.6719V44.6953C83.6847 46.3984 83.9659 47.8828 84.5284 49.1484C85.0909 50.3984 85.8566 51.375 86.8253 52.0781C87.8097 52.7656 88.9425 53.1094 90.2237 53.1094ZM103.843 57V32.3438H108.952V36.5625H109.046C109.437 35.1094 110.132 33.9688 111.132 33.1406C112.132 32.2969 113.335 31.875 114.741 31.875C115.116 31.875 115.452 31.8984 115.749 31.9453C116.062 31.9766 116.312 32.0156 116.499 32.0625V36.7734C116.296 36.6953 115.991 36.6328 115.585 36.5859C115.179 36.5234 114.726 36.4922 114.226 36.4922C113.147 36.4922 112.21 36.7266 111.413 37.1953C110.616 37.6484 110.007 38.3125 109.585 39.1875C109.163 40.0469 108.952 41.0859 108.952 42.3047V57H103.843ZM127.329 57.4922C124.97 57.4922 122.907 56.9766 121.142 55.9453C119.392 54.8984 118.032 53.4219 117.063 51.5156C116.095 49.5938 115.61 47.3125 115.61 44.6719V44.625C115.61 42 116.095 39.7344 117.063 37.8281C118.048 35.9219 119.415 34.4531 121.165 33.4219C122.931 32.3906 124.978 31.875 127.306 31.875C129.649 31.875 131.696 32.3906 133.446 33.4219C135.212 34.4375 136.579 35.8984 137.548 37.8047C138.532 39.7109 139.024 41.9844 139.024 44.625V44.6719C139.024 47.3281 138.532 49.6094 137.548 51.5156C136.579 53.4219 135.22 54.8984 133.47 55.9453C131.72 56.9766 129.673 57.4922 127.329 57.4922ZM127.353 53.2266C128.665 53.2266 129.806 52.8906 130.774 52.2188C131.743 51.5469 132.493 50.5781 133.024 49.3125C133.556 48.0312 133.821 46.4844 133.821 44.6719V44.625C133.821 42.8281 133.556 41.2969 133.024 40.0312C132.493 38.75 131.735 37.7812 130.751 37.125C129.767 36.4531 128.618 36.1172 127.306 36.1172C126.009 36.1172 124.868 36.4531 123.884 37.125C122.915 37.7969 122.157 38.7656 121.61 40.0312C121.063 41.2969 120.79 42.8281 120.79 44.625V44.6719C120.79 46.4844 121.056 48.0312 121.587 49.3125C122.134 50.5781 122.899 51.5469 123.884 52.2188C124.868 52.8906 126.024 53.2266 127.353 53.2266ZM141.018 57V32.3438H146.128V36.1641H146.222C146.753 34.8672 147.62 33.8281 148.823 33.0469C150.026 32.2656 151.432 31.875 153.042 31.875C154.167 31.875 155.182 32.0625 156.089 32.4375C157.011 32.8125 157.8 33.3672 158.456 34.1016C159.112 34.8203 159.597 35.6953 159.909 36.7266H160.026C160.448 35.7266 161.034 34.8672 161.784 34.1484C162.55 33.4141 163.432 32.8516 164.432 32.4609C165.448 32.0703 166.542 31.875 167.714 31.875C169.339 31.875 170.753 32.2188 171.956 32.9062C173.159 33.5781 174.097 34.5234 174.768 35.7422C175.44 36.9609 175.776 38.3906 175.776 40.0312V57H170.667V41.2734C170.667 40.1953 170.479 39.2812 170.104 38.5312C169.745 37.7812 169.214 37.2109 168.511 36.8203C167.823 36.4297 166.972 36.2344 165.956 36.2344C164.956 36.2344 164.073 36.4609 163.307 36.9141C162.557 37.3672 161.964 38 161.526 38.8125C161.104 39.625 160.893 40.5469 160.893 41.5781V57H155.901V40.8984C155.901 39.9453 155.706 39.125 155.315 38.4375C154.94 37.7344 154.409 37.1953 153.722 36.8203C153.034 36.4297 152.206 36.2344 151.237 36.2344C150.253 36.2344 149.37 36.4766 148.589 36.9609C147.823 37.4297 147.222 38.0781 146.784 38.9062C146.347 39.7344 146.128 40.6875 146.128 41.7656V57H141.018ZM178.708 65.2031V32.3438H183.817V36.5625H183.934C184.419 35.5938 185.036 34.7578 185.786 34.0547C186.552 33.3516 187.427 32.8125 188.411 32.4375C189.395 32.0625 190.473 31.875 191.645 31.875C193.739 31.875 195.559 32.3984 197.106 33.4453C198.653 34.4766 199.848 35.9531 200.692 37.875C201.536 39.7812 201.958 42.0469 201.958 44.6719V44.6953C201.958 47.3203 201.528 49.5859 200.669 51.4922C199.825 53.3984 198.637 54.875 197.106 55.9219C195.575 56.9688 193.778 57.4922 191.716 57.4922C190.559 57.4922 189.473 57.3047 188.458 56.9297C187.458 56.5547 186.575 56.0234 185.809 55.3359C185.044 54.6328 184.411 53.8047 183.911 52.8516H183.817V65.2031H178.708ZM190.309 53.1094C191.637 53.1094 192.786 52.7734 193.755 52.1016C194.723 51.4141 195.466 50.4375 195.981 49.1719C196.497 47.9062 196.755 46.4141 196.755 44.6953V44.6719C196.755 42.9219 196.497 41.4141 195.981 40.1484C195.466 38.8828 194.723 37.9141 193.755 37.2422C192.786 36.5703 191.637 36.2344 190.309 36.2344C189.028 36.2344 187.895 36.5859 186.911 37.2891C185.927 37.9766 185.153 38.9531 184.591 40.2188C184.044 41.4688 183.77 42.9531 183.77 44.6719V44.6953C183.77 46.3984 184.052 47.8828 184.614 49.1484C185.177 50.3984 185.942 51.375 186.911 52.0781C187.895 52.7656 189.028 53.1094 190.309 53.1094ZM212.624 57.4922C210.186 57.4922 208.366 56.9453 207.163 55.8516C205.975 54.7422 205.382 52.9531 205.382 50.4844V36.375H201.842V32.3438H205.382V25.9219H210.585V32.3438H215.202V36.375H210.585V50.2031C210.585 51.4531 210.858 52.3125 211.405 52.7812C211.952 53.2344 212.764 53.4609 213.842 53.4609C214.108 53.4609 214.35 53.4531 214.569 53.4375C214.803 53.4062 215.014 53.3828 215.202 53.3672V57.2812C214.905 57.3281 214.53 57.375 214.077 57.4219C213.624 57.4688 213.139 57.4922 212.624 57.4922ZM227.415 57.4922C225.008 57.4922 222.93 56.9766 221.18 55.9453C219.446 54.8984 218.11 53.4219 217.173 51.5156C216.251 49.5938 215.79 47.3359 215.79 44.7422V44.7188C215.79 42.1562 216.258 39.9141 217.196 37.9922C218.133 36.0547 219.454 34.5547 221.157 33.4922C222.86 32.4141 224.86 31.875 227.157 31.875C229.469 31.875 231.454 32.3906 233.11 33.4219C234.782 34.4375 236.071 35.8828 236.977 37.7578C237.883 39.6172 238.337 41.7812 238.337 44.25V45.9609H218.298V42.375H235.876L233.368 45.7266V43.7578C233.368 42.0234 233.102 40.5859 232.571 39.4453C232.055 38.2891 231.329 37.4297 230.391 36.8672C229.469 36.3047 228.399 36.0234 227.18 36.0234C225.977 36.0234 224.899 36.3203 223.946 36.9141C222.993 37.5078 222.243 38.3828 221.696 39.5391C221.149 40.6797 220.876 42.0859 220.876 43.7578V45.7266C220.876 47.3203 221.141 48.6875 221.673 49.8281C222.219 50.9531 222.993 51.8203 223.993 52.4297C224.993 53.0234 226.173 53.3203 227.532 53.3203C228.532 53.3203 229.415 53.1719 230.18 52.875C230.946 52.5625 231.579 52.1562 232.079 51.6562C232.594 51.1406 232.954 50.5703 233.157 49.9453L233.227 49.7578H238.055L238.008 50.0156C237.805 50.9844 237.423 51.9141 236.86 52.8047C236.298 53.6953 235.563 54.5 234.657 55.2188C233.766 55.9219 232.712 56.4766 231.493 56.8828C230.274 57.2891 228.915 57.4922 227.415 57.4922ZM240.307 57V32.3438H245.417V36.5625H245.51C245.901 35.1094 246.596 33.9688 247.596 33.1406C248.596 32.2969 249.799 31.875 251.206 31.875C251.581 31.875 251.917 31.8984 252.213 31.9453C252.526 31.9766 252.776 32.0156 252.963 32.0625V36.7734C252.76 36.6953 252.456 36.6328 252.049 36.5859C251.643 36.5234 251.19 36.4922 250.69 36.4922C249.612 36.4922 248.674 36.7266 247.878 37.1953C247.081 37.6484 246.471 38.3125 246.049 39.1875C245.628 40.0469 245.417 41.0859 245.417 42.3047V57H240.307Z" fill="url(#paint1_linear_4002_560)"/>
<defs>
<linearGradient id="paint0_linear_4002_560" x1="53.1" y1="7.87598" x2="53.1" y2="23.1617" gradientUnits="userSpaceOnUse">
<stop stop-color="white"/>
<stop offset="1" stop-color="white" stop-opacity="0"/>
</linearGradient>
<linearGradient id="paint1_linear_4002_560" x1="51.6759" y1="39.6279" x2="51.6759" y2="85.4851" gradientUnits="userSpaceOnUse">
<stop stop-color="white"/>
<stop offset="1" stop-color="white" stop-opacity="0"/>
</linearGradient>
</defs>
</svg>
