<svg width="24" height="24" viewBox="0 0 24 24" fill="none" xmlns="http://www.w3.org/2000/svg">
<path d="M8.25 5.75C7.84 5.75 7.5 5.41 7.5 5V2C7.5 1.59 7.84 1.25 8.25 1.25C8.66 1.25 9 1.59 9 2V5C9 5.41 8.66 5.75 8.25 5.75Z" fill="#FF4E1D"/>
<path d="M15.75 5.75C15.34 5.75 15 5.41 15 5V2C15 1.59 15.34 1.25 15.75 1.25C16.16 1.25 16.5 1.59 16.5 2V5C16.5 5.41 16.16 5.75 15.75 5.75Z" fill="#FF4E1D"/>
<path d="M12.46 3.5C13.01 3.5 13.46 3.95 13.46 4.5V5.54004C13.46 6.86002 14.6002 7.92027 15.9502 7.78027C17.1201 7.66019 17.9599 6.58004 17.96 5.41016V5.30957C17.9603 4.47984 18.9104 4.01008 19.5703 4.5C20.7402 5.39001 21.5 6.78021 21.5 8.37012V17.1299C21.5 19.8199 19.3199 22 16.6299 22H7.37012C4.68012 22 2.5 19.8199 2.5 17.1299V8.37012C2.5 8.23019 2.50954 8.09012 2.51953 7.9502C2.52952 7.83035 2.53962 7.72021 2.55957 7.61035C2.57957 7.46035 2.61039 7.30992 2.65039 7.16992C2.69038 7.01998 2.73006 6.86967 2.79004 6.71973C2.80994 6.66992 2.81977 6.62989 2.84961 6.58008C2.8896 6.4501 2.94978 6.32994 3.00977 6.20996C3.00978 6.19001 3.02009 6.1801 3.04004 6.16016C3.11003 6.02017 3.19028 5.87023 3.28027 5.74023C3.29017 5.72044 3.29967 5.71009 3.30957 5.7002C3.38952 5.57028 3.47995 5.44024 3.58984 5.32031C3.79984 5.05031 4.05008 4.80008 4.33008 4.58008C4.36003 4.55013 4.39971 4.52991 4.42969 4.5C4.46969 4.47 4.50004 4.44969 4.54004 4.42969C4.54998 4.41986 4.56037 4.4201 4.57031 4.41016C5.22016 4.0804 6.03973 4.5399 6.04004 5.30957V5.41016C6.04009 6.2201 6.44035 6.97995 7.07031 7.41992C7.16027 7.47987 7.26042 7.53011 7.36035 7.58008C7.46025 7.63001 7.56026 7.67023 7.66016 7.7002C7.78005 7.74015 7.90995 7.77027 8.0498 7.78027C8.2098 7.80027 8.37027 7.80027 8.53027 7.78027C8.67013 7.77026 8.80003 7.74015 8.91992 7.7002C9.02982 7.67022 9.12979 7.63002 9.21973 7.58008C9.31968 7.5301 9.4198 7.47988 9.50977 7.41992C10.1298 7.02993 10.54 6.33002 10.54 5.54004V4.5C10.54 3.95 10.99 3.5 11.54 3.5H12.46ZM8.41211 10.5244C7.71634 10.5244 7.1601 10.6197 6.74414 10.8115C6.32814 10.9955 6.12012 11.2885 6.12012 11.6885C6.12019 11.8803 6.16403 12.0485 6.25195 12.1924C6.33992 12.3282 6.45199 12.4441 6.58789 12.54C6.74789 12.428 6.9522 12.3357 7.2002 12.2637C7.44801 12.1838 7.73581 12.1436 8.06348 12.1436C8.43134 12.1436 8.7076 12.208 8.8916 12.3359C9.07556 12.4639 9.16792 12.6319 9.16797 12.8398C9.16797 13.2798 8.87971 13.5 8.30371 13.5H7.17578C7.11179 13.588 7.05953 13.7 7.01953 13.8359C6.98755 13.9639 6.9717 14.1198 6.97168 14.3037C6.97168 14.4797 6.99225 14.6318 7.03223 14.7598C7.07222 14.8877 7.11979 14.996 7.17578 15.084H8.30371C8.68735 15.084 8.95535 15.1439 9.10742 15.2637C9.26742 15.3837 9.34765 15.56 9.34766 15.792C9.34766 16.024 9.24785 16.2124 9.04785 16.3564C8.85584 16.5003 8.55531 16.5723 8.14746 16.5723C7.71564 16.5722 7.36371 16.5116 7.0918 16.3916C6.82802 16.2637 6.61598 16.1441 6.45605 16.0322C6.30405 16.1202 6.17627 16.2443 6.07227 16.4043C5.96827 16.5563 5.91602 16.7401 5.91602 16.9561C5.91604 17.316 6.1279 17.6118 6.55176 17.8438C6.9757 18.0757 7.6037 18.1924 8.43555 18.1924C8.86755 18.1924 9.26402 18.1401 9.62402 18.0361C9.99197 17.9401 10.3083 17.7955 10.5723 17.6035C10.8359 17.4116 11.0397 17.1799 11.1836 16.9082C11.3355 16.6363 11.4121 16.3282 11.4121 15.9844C11.4121 15.7284 11.3794 15.5035 11.3154 15.3115C11.2514 15.1198 11.1636 14.9515 11.0518 14.8076C10.9399 14.6638 10.8118 14.5442 10.668 14.4482C10.5241 14.3523 10.3681 14.272 10.2002 14.208C10.48 14.072 10.72 13.8722 10.9199 13.6084C11.1279 13.3364 11.2314 13.008 11.2314 12.624C11.2314 11.984 10.9917 11.4756 10.5117 11.0996C10.0318 10.7158 9.33181 10.5244 8.41211 10.5244ZM14.7432 10.5244C14.2712 10.5244 13.8346 10.6084 13.4346 10.7764C13.0429 10.9443 12.7029 11.1918 12.415 11.5195C12.1351 11.8395 11.9149 12.2398 11.7549 12.7197C11.6029 13.1916 11.5264 13.7357 11.5264 14.3516C11.5264 14.9676 11.6029 15.5161 11.7549 15.9961C11.9149 16.476 12.1351 16.88 12.415 17.208C12.703 17.5279 13.0426 17.7725 13.4346 17.9404C13.8346 18.1084 14.2712 18.1924 14.7432 18.1924C15.2068 18.1923 15.6346 18.1082 16.0264 17.9404C16.4264 17.7724 16.7669 17.528 17.0469 17.208C17.3348 16.88 17.5588 16.476 17.7188 15.9961C17.8787 15.5161 17.959 14.9676 17.959 14.3516C17.9589 13.7357 17.8787 13.1916 17.7188 12.7197C17.5588 12.2398 17.3348 11.8395 17.0469 11.5195C16.7669 11.1916 16.4263 10.9443 16.0264 10.7764C15.6345 10.6085 15.2069 10.5245 14.7432 10.5244ZM14.7305 12.1436C15.1064 12.1436 15.3947 12.3359 15.5947 12.7197C15.8027 13.1036 15.9072 13.6478 15.9072 14.3516C15.9072 15.0556 15.8027 15.6041 15.5947 15.9961C15.3947 16.38 15.1064 16.5723 14.7305 16.5723C14.3547 16.5722 14.0671 16.3798 13.8672 15.9961C13.6752 15.6041 13.5791 15.0556 13.5791 14.3516C13.5791 13.6478 13.6752 13.1036 13.8672 12.7197C14.0671 12.3361 14.3548 12.1437 14.7305 12.1436Z" fill="#FF4E1D"/>
</svg>
