<svg width="14" height="16" viewBox="0 0 14 16" fill="none" xmlns="http://www.w3.org/2000/svg">
<path d="M12.3708 5.52246C12.5203 5.52246 12.6562 5.58804 12.7634 5.69824C12.8634 5.81599 12.9138 5.96269 12.8992 6.11719C12.8977 6.18694 12.4991 11.2269 12.2712 13.3506C12.1283 14.6562 11.2866 15.4488 10.0242 15.4707C9.05335 15.4925 8.10403 15.5 7.16968 15.5C6.17767 15.5 5.20705 15.4925 4.26538 15.4707C3.04531 15.4413 2.20281 14.6344 2.06714 13.3506C1.83265 11.2189 1.44091 6.18442 1.43237 6.11719C1.42508 5.96269 1.47527 5.81599 1.57593 5.69824C1.67512 5.58809 1.81832 5.52246 1.96851 5.52246H12.3708ZM8.71558 0.5C9.3785 0.500131 9.97095 0.963147 10.1423 1.62305L10.2644 2.16992C10.3636 2.61609 10.7502 2.93251 11.1951 2.93262H13.3826C13.674 2.93288 13.9166 3.17449 13.9167 3.48242V3.76758C13.9167 4.06816 13.6741 4.31809 13.3826 4.31836H0.951904C0.659514 4.31823 0.416748 4.06824 0.416748 3.76758V3.48242C0.416905 3.1744 0.659608 2.93275 0.951904 2.93262H3.1394C3.58342 2.93239 3.97017 2.61623 4.07007 2.1709L4.18433 1.65918C4.36238 0.962716 4.94781 0.50013 5.61792 0.5H8.71558Z" fill="#FF4E1D"/>
</svg>
