<svg width="41" height="40" viewBox="0 0 41 40" fill="none" xmlns="http://www.w3.org/2000/svg">
<rect x="0.5" width="40" height="40" rx="20" fill="url(#paint0_linear_4016_1434)"/>
<rect x="1" y="0.5" width="39" height="39" rx="19.5" stroke="url(#paint1_linear_4016_1434)" stroke-opacity="0.08"/>
<path d="M17.9697 18.5303C18.2626 18.8232 18.7374 18.8232 19.0303 18.5303C19.3232 18.2374 19.3232 17.7626 19.0303 17.4697L17.9697 18.5303ZM12.5303 10.9697C12.2374 10.6768 11.7626 10.6768 11.4697 10.9697C11.1768 11.2626 11.1768 11.7374 11.4697 12.0303L12.5303 10.9697ZM11.8878 11.3878L12.4182 11.9182L12.4182 11.9182L11.8878 11.3878ZM16.433 11.8448C16.8455 11.8818 17.21 11.5774 17.247 11.1648C17.284 10.7523 16.9796 10.3878 16.567 10.3508L16.433 11.8448ZM10.8508 16.067C10.8879 16.4796 11.2523 16.784 11.6649 16.747C12.0774 16.71 12.3818 16.3455 12.3448 15.933L10.8508 16.067ZM18.5 18L19.0303 17.4697L12.5303 10.9697L12 11.5L11.4697 12.0303L17.9697 18.5303L18.5 18ZM11.8878 11.3878L12.4182 11.9182C12.3683 11.968 12.3594 11.9473 12.4908 11.9071C12.6041 11.8725 12.7652 11.8402 12.9734 11.8143C13.3884 11.7628 13.9072 11.7466 14.4304 11.7506C14.949 11.7546 15.4508 11.7781 15.8246 11.8009C16.011 11.8123 16.1643 11.8233 16.2706 11.8315C16.3237 11.8356 16.365 11.839 16.3926 11.8413C16.4065 11.8425 16.4169 11.8434 16.4237 11.844C16.4271 11.8443 16.4296 11.8445 16.4311 11.8446C16.4319 11.8447 16.4325 11.8447 16.4328 11.8448C16.4329 11.8448 16.433 11.8448 16.4331 11.8448C16.4331 11.8448 16.4331 11.8448 16.4331 11.8448C16.433 11.8448 16.433 11.8448 16.5 11.0978C16.567 10.3508 16.5669 10.3508 16.5668 10.3508C16.5668 10.3508 16.5667 10.3508 16.5666 10.3508C16.5664 10.3507 16.5661 10.3507 16.5658 10.3507C16.5651 10.3506 16.5642 10.3505 16.5631 10.3504C16.5608 10.3502 16.5576 10.35 16.5535 10.3496C16.5453 10.3489 16.5333 10.3479 16.518 10.3466C16.4872 10.344 16.4426 10.3404 16.386 10.336C16.2729 10.3273 16.1113 10.3156 15.9158 10.3037C15.5257 10.2799 14.9956 10.2549 14.4419 10.2506C13.8928 10.2464 13.2988 10.2624 12.7885 10.3258C12.5341 10.3574 12.2794 10.4032 12.0521 10.4727C11.843 10.5367 11.5688 10.6462 11.3575 10.8575L11.8878 11.3878ZM11.5978 16C12.3448 15.933 12.3448 15.933 12.3448 15.9331C12.3448 15.933 12.3448 15.9331 12.3448 15.933C12.3448 15.933 12.3448 15.9329 12.3448 15.9328C12.3448 15.9325 12.3447 15.9319 12.3447 15.9311C12.3445 15.9296 12.3443 15.9271 12.344 15.9237C12.3434 15.9169 12.3425 15.9065 12.3414 15.8926C12.339 15.865 12.3357 15.8237 12.3316 15.7706C12.3234 15.6643 12.3123 15.5109 12.3009 15.3246C12.2781 14.9508 12.2546 14.449 12.2506 13.9304C12.2466 13.4072 12.2628 12.8884 12.3143 12.4734C12.3402 12.2652 12.3725 12.1041 12.4071 11.9909C12.4473 11.8594 12.468 11.8683 12.4182 11.9182L11.8878 11.3878L11.3575 10.8575C11.1462 11.0688 11.0367 11.343 10.9727 11.5521C10.9032 11.7794 10.8573 12.0341 10.8257 12.2885C10.7624 12.7989 10.7464 13.3928 10.7506 13.9419C10.7549 14.4956 10.7799 15.0257 10.8037 15.4158C10.8156 15.6114 10.8273 15.7729 10.836 15.886C10.8404 15.9427 10.844 15.9872 10.8466 16.018C10.8479 16.0333 10.8489 16.0453 10.8496 16.0535C10.85 16.0576 10.8503 16.0609 10.8505 16.0631C10.8506 16.0642 10.8507 16.0651 10.8507 16.0658C10.8507 16.0661 10.8508 16.0664 10.8508 16.0666C10.8508 16.0667 10.8508 16.0668 10.8508 16.0669C10.8508 16.067 10.8508 16.067 11.5978 16Z" fill="white"/>
<path d="M19.0303 22.5303C19.3232 22.2374 19.3232 21.7626 19.0303 21.4697C18.7374 21.1768 18.2626 21.1768 17.9697 21.4697L19.0303 22.5303ZM11.4697 27.9697C11.1768 28.2626 11.1768 28.7374 11.4697 29.0303C11.7626 29.3232 12.2374 29.3232 12.5303 29.0303L11.4697 27.9697ZM11.8878 28.6121L12.4182 28.0818H12.4182L11.8878 28.6121ZM16.567 29.6492C16.9796 29.6122 17.284 29.2477 17.247 28.8352C17.21 28.4226 16.8455 28.1182 16.433 28.1552L16.567 29.6492ZM12.3448 24.067C12.3818 23.6545 12.0774 23.29 11.6649 23.253C11.2523 23.216 10.8879 23.5204 10.8508 23.933L12.3448 24.067ZM18.5 22L17.9697 21.4697L11.4697 27.9697L12 28.5L12.5303 29.0303L19.0303 22.5303L18.5 22ZM11.8878 28.6121L11.3575 29.1425C11.5688 29.3538 11.843 29.4633 12.0521 29.5273C12.2794 29.5968 12.5341 29.6426 12.7885 29.6742C13.2988 29.7376 13.8928 29.7536 14.4419 29.7494C14.9956 29.7451 15.5257 29.7201 15.9158 29.6963C16.1113 29.6844 16.2729 29.6727 16.386 29.664C16.4426 29.6596 16.4872 29.656 16.518 29.6534C16.5333 29.6521 16.5453 29.6511 16.5535 29.6504C16.5576 29.65 16.5608 29.6498 16.5631 29.6496C16.5642 29.6495 16.5651 29.6494 16.5658 29.6493C16.5661 29.6493 16.5664 29.6493 16.5666 29.6492C16.5667 29.6492 16.5668 29.6492 16.5668 29.6492C16.5669 29.6492 16.567 29.6492 16.5 28.9022C16.433 28.1552 16.433 28.1552 16.4331 28.1552C16.4331 28.1552 16.4331 28.1552 16.4331 28.1552C16.433 28.1552 16.4329 28.1552 16.4328 28.1552C16.4325 28.1552 16.4319 28.1553 16.4311 28.1554C16.4296 28.1555 16.4271 28.1557 16.4237 28.156C16.4169 28.1566 16.4065 28.1575 16.3926 28.1587C16.365 28.161 16.3237 28.1644 16.2706 28.1685C16.1643 28.1767 16.011 28.1877 15.8246 28.1991C15.4508 28.2219 14.949 28.2454 14.4304 28.2494C13.9072 28.2534 13.3884 28.2372 12.9734 28.1857C12.7652 28.1598 12.6041 28.1275 12.4908 28.0929C12.3594 28.0527 12.3683 28.032 12.4182 28.0818L11.8878 28.6121ZM11.5978 24C10.8508 23.933 10.8508 23.933 10.8508 23.9331C10.8508 23.9332 10.8508 23.9333 10.8508 23.9334C10.8508 23.9336 10.8507 23.9339 10.8507 23.9342C10.8507 23.9349 10.8506 23.9358 10.8505 23.9369C10.8503 23.9391 10.85 23.9424 10.8496 23.9465C10.8489 23.9547 10.8479 23.9667 10.8466 23.982C10.844 24.0128 10.8404 24.0573 10.836 24.114C10.8273 24.2271 10.8156 24.3886 10.8037 24.5842C10.7799 24.9743 10.7549 25.5044 10.7506 26.0581C10.7464 26.6072 10.7624 27.2011 10.8257 27.7115C10.8573 27.9659 10.9032 28.2206 10.9727 28.4479C11.0367 28.657 11.1462 28.9312 11.3575 29.1425L11.8878 28.6121L12.4182 28.0818C12.468 28.1317 12.4473 28.1406 12.4071 28.0091C12.3725 27.8959 12.3402 27.7348 12.3143 27.5266C12.2628 27.1116 12.2466 26.5928 12.2506 26.0696C12.2546 25.551 12.2781 25.0492 12.3009 24.6754C12.3123 24.4891 12.3234 24.3357 12.3316 24.2294C12.3357 24.1763 12.339 24.135 12.3414 24.1074C12.3425 24.0935 12.3434 24.0831 12.344 24.0763C12.3443 24.0729 12.3445 24.0704 12.3447 24.0689C12.3447 24.0681 12.3448 24.0675 12.3448 24.0672C12.3448 24.0671 12.3448 24.067 12.3448 24.067C12.3448 24.0669 12.3448 24.067 12.3448 24.0669C12.3448 24.067 12.3448 24.067 11.5978 24Z" fill="white"/>
<path d="M21.9697 17.4697C21.6768 17.7626 21.6768 18.2374 21.9697 18.5303C22.2626 18.8232 22.7374 18.8232 23.0303 18.5303L21.9697 17.4697ZM29.5303 12.0303C29.8232 11.7374 29.8232 11.2626 29.5303 10.9697C29.2374 10.6768 28.7626 10.6768 28.4697 10.9697L29.5303 12.0303ZM29.1122 11.3878L28.5818 11.9182L28.5818 11.9182L29.1122 11.3878ZM24.433 10.3508C24.0204 10.3878 23.716 10.7523 23.753 11.1648C23.79 11.5774 24.1545 11.8818 24.567 11.8448L24.433 10.3508ZM28.6552 15.933C28.6182 16.3455 28.9226 16.71 29.3351 16.747C29.7477 16.784 30.1122 16.4796 30.1492 16.067L28.6552 15.933ZM22.5 18L23.0303 18.5303L29.5303 12.0303L29 11.5L28.4697 10.9697L21.9697 17.4697L22.5 18ZM29.1122 11.3878L29.6425 10.8575C29.4312 10.6462 29.157 10.5367 28.9479 10.4727C28.7206 10.4032 28.4659 10.3574 28.2115 10.3258C27.7012 10.2624 27.1072 10.2464 26.5581 10.2506C26.0044 10.2549 25.4743 10.2799 25.0842 10.3037C24.8887 10.3156 24.7271 10.3273 24.614 10.336C24.5574 10.3404 24.5128 10.344 24.482 10.3466C24.4667 10.3479 24.4547 10.3489 24.4465 10.3496C24.4424 10.35 24.4392 10.3502 24.4369 10.3504C24.4358 10.3505 24.4349 10.3506 24.4342 10.3507C24.4339 10.3507 24.4336 10.3507 24.4334 10.3508C24.4333 10.3508 24.4332 10.3508 24.4332 10.3508C24.4331 10.3508 24.433 10.3508 24.5 11.0978C24.567 11.8448 24.567 11.8448 24.5669 11.8448C24.5669 11.8448 24.5669 11.8448 24.5669 11.8448C24.567 11.8448 24.5671 11.8448 24.5672 11.8448C24.5675 11.8447 24.5681 11.8447 24.5689 11.8446C24.5704 11.8445 24.5729 11.8443 24.5763 11.844C24.5831 11.8434 24.5935 11.8425 24.6074 11.8413C24.635 11.839 24.6763 11.8356 24.7294 11.8315C24.8357 11.8233 24.989 11.8123 25.1754 11.8009C25.5492 11.7781 26.051 11.7546 26.5696 11.7506C27.0928 11.7466 27.6116 11.7628 28.0266 11.8143C28.2348 11.8402 28.3959 11.8725 28.5092 11.9071C28.6406 11.9473 28.6317 11.968 28.5818 11.9182L29.1122 11.3878ZM29.4022 16C30.1492 16.067 30.1492 16.067 30.1492 16.0669C30.1492 16.0668 30.1492 16.0667 30.1492 16.0666C30.1492 16.0664 30.1493 16.0661 30.1493 16.0658C30.1493 16.0651 30.1494 16.0642 30.1495 16.0631C30.1497 16.0609 30.15 16.0576 30.1504 16.0535C30.1511 16.0453 30.1521 16.0333 30.1534 16.018C30.156 15.9872 30.1596 15.9427 30.164 15.886C30.1727 15.7729 30.1844 15.6114 30.1963 15.4158C30.2201 15.0257 30.2451 14.4956 30.2494 13.9419C30.2536 13.3928 30.2376 12.7989 30.1743 12.2885C30.1427 12.0341 30.0968 11.7794 30.0273 11.5521C29.9633 11.343 29.8538 11.0688 29.6425 10.8575L29.1122 11.3878L28.5818 11.9182C28.532 11.8683 28.5527 11.8594 28.5929 11.9909C28.6275 12.1041 28.6598 12.2652 28.6857 12.4734C28.7372 12.8884 28.7534 13.4072 28.7494 13.9304C28.7454 14.449 28.7219 14.9508 28.6991 15.3246C28.6877 15.5109 28.6766 15.6643 28.6684 15.7706C28.6643 15.8237 28.661 15.865 28.6586 15.8926C28.6575 15.9065 28.6566 15.9169 28.656 15.9237C28.6557 15.9271 28.6555 15.9296 28.6553 15.9311C28.6553 15.9319 28.6552 15.9325 28.6552 15.9328C28.6552 15.9329 28.6552 15.933 28.6552 15.933C28.6552 15.9331 28.6552 15.933 28.6552 15.9331C28.6552 15.933 28.6552 15.933 29.4022 16Z" fill="white"/>
<path d="M23.0303 21.4697C22.7374 21.1768 22.2626 21.1768 21.9697 21.4697C21.6768 21.7626 21.6768 22.2374 21.9697 22.5303L23.0303 21.4697ZM28.4697 29.0303C28.7626 29.3232 29.2374 29.3232 29.5303 29.0303C29.8232 28.7374 29.8232 28.2626 29.5303 27.9697L28.4697 29.0303ZM29.1122 28.6121L28.5818 28.0818H28.5818L29.1122 28.6121ZM24.567 28.1552C24.1545 28.1182 23.79 28.4226 23.753 28.8352C23.716 29.2477 24.0204 29.6122 24.433 29.6492L24.567 28.1552ZM30.1492 23.933C30.1122 23.5204 29.7477 23.216 29.3351 23.253C28.9226 23.29 28.6182 23.6545 28.6552 24.067L30.1492 23.933ZM22.5 22L21.9697 22.5303L28.4697 29.0303L29 28.5L29.5303 27.9697L23.0303 21.4697L22.5 22ZM29.1122 28.6121L28.5818 28.0818C28.6317 28.032 28.6406 28.0527 28.5092 28.0929C28.3959 28.1275 28.2348 28.1598 28.0266 28.1857C27.6116 28.2372 27.0928 28.2534 26.5696 28.2494C26.051 28.2454 25.5492 28.2219 25.1754 28.1991C24.989 28.1877 24.8357 28.1767 24.7294 28.1685C24.6763 28.1644 24.635 28.161 24.6074 28.1587C24.5935 28.1575 24.5831 28.1566 24.5763 28.156C24.5729 28.1557 24.5704 28.1555 24.5689 28.1554C24.5681 28.1553 24.5675 28.1552 24.5672 28.1552C24.5671 28.1552 24.567 28.1552 24.5669 28.1552C24.5669 28.1552 24.5669 28.1552 24.5669 28.1552C24.567 28.1552 24.567 28.1552 24.5 28.9022C24.433 29.6492 24.4331 29.6492 24.4332 29.6492C24.4332 29.6492 24.4333 29.6492 24.4334 29.6492C24.4336 29.6493 24.4339 29.6493 24.4342 29.6493C24.4349 29.6494 24.4358 29.6495 24.4369 29.6496C24.4392 29.6498 24.4424 29.65 24.4465 29.6504C24.4547 29.6511 24.4667 29.6521 24.482 29.6534C24.5128 29.656 24.5574 29.6596 24.614 29.664C24.7271 29.6727 24.8887 29.6844 25.0842 29.6963C25.4743 29.7201 26.0044 29.7451 26.5581 29.7494C27.1072 29.7536 27.7012 29.7376 28.2115 29.6742C28.4659 29.6426 28.7206 29.5968 28.9479 29.5273C29.157 29.4633 29.4312 29.3538 29.6425 29.1425L29.1122 28.6121ZM29.4022 24C28.6552 24.067 28.6552 24.067 28.6552 24.0669C28.6552 24.067 28.6552 24.0669 28.6552 24.067C28.6552 24.067 28.6552 24.0671 28.6552 24.0672C28.6552 24.0675 28.6553 24.0681 28.6553 24.0689C28.6555 24.0704 28.6557 24.0729 28.656 24.0763C28.6566 24.0831 28.6575 24.0935 28.6586 24.1074C28.661 24.135 28.6643 24.1763 28.6684 24.2294C28.6766 24.3357 28.6877 24.4891 28.6991 24.6754C28.7219 25.0492 28.7454 25.551 28.7494 26.0696C28.7534 26.5928 28.7372 27.1116 28.6857 27.5266C28.6598 27.7348 28.6275 27.8959 28.5929 28.0091C28.5527 28.1406 28.532 28.1317 28.5818 28.0818L29.1122 28.6121L29.6425 29.1425C29.8538 28.9312 29.9633 28.657 30.0273 28.4479C30.0968 28.2206 30.1427 27.9659 30.1743 27.7115C30.2376 27.2011 30.2536 26.6072 30.2494 26.0581C30.2451 25.5044 30.2201 24.9743 30.1963 24.5842C30.1844 24.3886 30.1727 24.2271 30.164 24.114C30.1596 24.0573 30.156 24.0128 30.1534 23.982C30.1521 23.9667 30.1511 23.9547 30.1504 23.9465C30.15 23.9424 30.1497 23.9391 30.1495 23.9369C30.1494 23.9358 30.1493 23.9349 30.1493 23.9342C30.1493 23.9339 30.1492 23.9336 30.1492 23.9334C30.1492 23.9333 30.1492 23.9332 30.1492 23.9331C30.1492 23.933 30.1492 23.933 29.4022 24Z" fill="white"/>
<defs>
<linearGradient id="paint0_linear_4016_1434" x1="11.6254" y1="1.07074e-07" x2="11.6254" y2="40" gradientUnits="userSpaceOnUse">
<stop stop-color="#FF6438"/>
<stop offset="1" stop-color="#FF4E1D"/>
</linearGradient>
<linearGradient id="paint1_linear_4016_1434" x1="20.5" y1="0" x2="20.5" y2="40" gradientUnits="userSpaceOnUse">
<stop stop-color="white"/>
<stop offset="1" stop-color="white" stop-opacity="0"/>
</linearGradient>
</defs>
</svg>
