<svg width="100" height="101" viewBox="0 0 100 101" fill="none" xmlns="http://www.w3.org/2000/svg">
<path fill-rule="evenodd" clip-rule="evenodd" d="M60 100.5H40C21.1438 100.5 11.7157 100.5 5.85786 94.6421C0 88.7843 0 79.3562 0 60.5V40.5C0 21.6438 0 12.2157 5.85786 6.35786C11.7157 0.5 21.1935 0.5 40.149 0.5C43.179 0.5 45.607 0.499998 47.65 0.583306C47.5828 0.982964 47.5475 1.39064 47.5462 1.80283L47.5 15.9748C47.4995 21.4604 47.4992 26.3082 48.0245 30.2158C48.594 34.4514 49.9015 38.6863 53.3579 42.1427C56.8142 45.599 61.0492 46.9066 65.2847 47.476C69.1923 48.0014 74.0402 48.001 79.5257 48.0006L80 48.0005H99.7871C100 50.6719 100 53.9505 100 58.3145V60.5C100 79.3562 100 88.7843 94.1421 94.6421C88.2843 100.5 78.8562 100.5 60 100.5Z" fill="white" fill-opacity="0.08"/>
<path d="M86.7586 28.5833L66.9647 10.7688C61.3254 5.6934 58.5058 3.15572 55.0461 1.82812L55 15.5005C55 27.2856 55 33.1782 58.6612 36.8394C62.3223 40.5005 68.2149 40.5005 80 40.5005H97.9005C96.0876 36.9794 92.8419 34.0582 86.7586 28.5833Z" fill="white" fill-opacity="0.08"/>
</svg>
