<svg width="41" height="40" viewBox="0 0 41 40" fill="none" xmlns="http://www.w3.org/2000/svg">
<rect x="0.5" width="40" height="40" rx="20" fill="url(#paint0_linear_4016_1436)"/>
<rect x="1" y="0.5" width="39" height="39" rx="19.5" stroke="url(#paint1_linear_4016_1436)" stroke-opacity="0.08"/>
<path d="M29.5303 12.0303C29.8232 11.7374 29.8232 11.2626 29.5303 10.9697C29.2374 10.6768 28.7626 10.6768 28.4697 10.9697L29.5303 12.0303ZM21.4697 17.9697C21.1768 18.2626 21.1768 18.7374 21.4697 19.0303C21.7626 19.3232 22.2374 19.3232 22.5303 19.0303L21.4697 17.9697ZM22 18.5L22.5303 19.0303L29.5303 12.0303L29 11.5L28.4697 10.9697L21.4697 17.9697L22 18.5Z" fill="white"/>
<path d="M11.4697 27.9697C11.1768 28.2626 11.1768 28.7374 11.4697 29.0303C11.7626 29.3232 12.2374 29.3232 12.5303 29.0303L11.4697 27.9697ZM19.5303 22.0303C19.8232 21.7374 19.8232 21.2626 19.5303 20.9697C19.2374 20.6768 18.7626 20.6768 18.4697 20.9697L19.5303 22.0303ZM12 28.5L12.5303 29.0303L19.5303 22.0303L19 21.5L18.4697 20.9697L11.4697 27.9697L12 28.5Z" fill="white"/>
<path d="M25 11.2662C25.8444 11.2542 28.6409 10.6733 29.2338 11.2662C29.8267 11.8591 29.2458 14.6556 29.2338 15.5" stroke="white" stroke-width="1.5" stroke-linecap="round" stroke-linejoin="round"/>
<path d="M11.7662 24.5C11.7542 25.3444 11.1733 28.1409 11.7662 28.7338C12.3591 29.3267 15.1556 28.7458 16 28.7338" stroke="white" stroke-width="1.5" stroke-linecap="round" stroke-linejoin="round"/>
<defs>
<linearGradient id="paint0_linear_4016_1436" x1="11.6254" y1="1.07074e-07" x2="11.6254" y2="40" gradientUnits="userSpaceOnUse">
<stop stop-color="#FF6438"/>
<stop offset="1" stop-color="#FF4E1D"/>
</linearGradient>
<linearGradient id="paint1_linear_4016_1436" x1="20.5" y1="0" x2="20.5" y2="40" gradientUnits="userSpaceOnUse">
<stop stop-color="white"/>
<stop offset="1" stop-color="white" stop-opacity="0"/>
</linearGradient>
</defs>
</svg>
