<svg width="15" height="15" viewBox="0 0 15 15" fill="none" xmlns="http://www.w3.org/2000/svg">
<path d="M5.52881 14.3364C5.20231 14.3364 4.91455 14.1759 4.66553 13.855L0.357422 8.36816C0.274414 8.26855 0.213542 8.16895 0.174805 8.06934C0.136068 7.96419 0.116699 7.86182 0.116699 7.76221C0.116699 7.53532 0.191406 7.34993 0.34082 7.20605C0.490234 7.05664 0.681152 6.98193 0.913574 6.98193C1.19027 6.98193 1.42822 7.11751 1.62744 7.38867L5.49561 12.4521L12.9497 0.57373C13.0493 0.418783 13.1517 0.310872 13.2568 0.25C13.362 0.183594 13.4976 0.150391 13.6636 0.150391C13.8905 0.150391 14.0731 0.219564 14.2114 0.35791C14.3498 0.496257 14.4189 0.678874 14.4189 0.905762C14.4189 1.00537 14.4023 1.10498 14.3691 1.20459C14.3359 1.29867 14.2834 1.40381 14.2114 1.52002L6.36719 13.8716C6.16243 14.1815 5.88298 14.3364 5.52881 14.3364Z" fill="#FF4E1D"/>
</svg>
