<svg width="40" height="40" viewBox="0 0 40 40" fill="none" xmlns="http://www.w3.org/2000/svg">
<rect width="40" height="40" rx="12" fill="white" fill-opacity="0.04"/>
<rect x="0.5" y="0.5" width="39" height="39" rx="11.5" stroke="url(#paint0_linear_4008_2814)" stroke-opacity="0.08"/>
<path d="M26.9401 13.4199L21.7701 10.4299C20.7801 9.85994 19.2301 9.85994 18.2401 10.4299L13.0201 13.4399C10.9501 14.8399 10.8301 15.0499 10.8301 17.2799V22.7099C10.8301 24.9399 10.9501 25.1599 13.0601 26.5799L18.2301 29.5699C18.7301 29.8599 19.3701 29.9999 20.0001 29.9999C20.6301 29.9999 21.2701 29.8599 21.7601 29.5699L26.9801 26.5599C29.0501 25.1599 29.1701 24.9499 29.1701 22.7199V17.2799C29.1701 15.0499 29.0501 14.8399 26.9401 13.4199ZM20.0001 23.2499C18.2101 23.2499 16.7501 21.7899 16.7501 19.9999C16.7501 18.2099 18.2101 16.7499 20.0001 16.7499C21.7901 16.7499 23.2501 18.2099 23.2501 19.9999C23.2501 21.7899 21.7901 23.2499 20.0001 23.2499Z" fill="white"/>
<defs>
<linearGradient id="paint0_linear_4008_2814" x1="20" y1="0" x2="20" y2="40" gradientUnits="userSpaceOnUse">
<stop stop-color="white"/>
<stop offset="1" stop-color="white" stop-opacity="0"/>
</linearGradient>
</defs>
</svg>
